<svg width="205" height="205" viewBox="0 0 205 205" fill="none" xmlns="http://www.w3.org/2000/svg">
<circle cx="102.5" cy="102.5" r="102.5" fill="white"/>
<path d="M56 61.104C56.0174 63.5328 56.9083 64.364 57.8357 67.1041C60.1037 73.3855 62.3717 79.6673 64.6397 85.9488C64.828 86.3984 64.6798 85.9521 64.8576 86.5295C65.48 88.5534 66.5887 91.1548 66.6305 93.1288C64.1028 93.8968 65.2778 93.3464 63.5171 94.9821C62.8058 95.6412 62.3351 95.962 61.7371 97.1245C61.4251 97.9422 61.1148 98.7602 60.8028 99.578C60.292 101.584 61.1828 103.797 61.8818 104.865C62.94 106.482 65.9175 106.517 65.9175 106.517L139.057 106.514C145.432 106.514 143.286 108.375 146.508 112.221C147.571 113.489 153.216 112.947 155.188 112.947L170.767 112.85L186.347 112.752C187.829 112.766 190.853 114.007 190.806 109.609C190.792 108.39 190.188 106.97 189.678 106.25C187.247 102.813 175.047 98.7364 171.592 97.1218C171.17 96.9245 170.971 96.8614 170.487 96.7467L168.851 96.2649L167.218 95.783C161.27 94.109 162.931 93.4032 159.138 90.6016C157.834 89.6389 155.324 88.5161 155.324 88.5161C155.324 88.5161 154.03 87.8232 153.369 87.5727L152.571 87.2883L151.274 86.8263C143.232 83.9161 130.691 85.829 122.471 86.4775C119.705 86.6958 106.543 89.1791 104.027 90.0424C99.08 91.7383 99.854 91.1622 96.2385 87.973L88.4547 80.3493C88.4007 80.2906 88.2264 80.1205 88.1706 80.0664L82.6042 74.1385C82.2399 73.7214 82.1719 73.6814 81.8686 73.3679C81.6315 73.1224 81.3874 72.8109 81.1468 72.5243L69.3257 59.8796C67.7062 58.7406 61.9498 59.0364 59.7306 59.0301C57.3597 59.0234 57.2499 59.477 56 61.104Z" fill="black"/>
<path d="M68.4636 113.245C68.2596 113.277 68.0678 113.292 67.8656 113.299C63.3121 113.474 57.4269 113.408 51.9808 113.347C49.3729 113.318 46.866 113.29 44.6538 113.29H19.9062C19.5139 113.29 19.1443 113.273 18.7922 113.256L18.6423 113.248C16.9687 113.163 15.7327 113.1 14.7129 114.758C13.395 116.903 14.0853 119.486 15.3178 120.396C16.7473 121.453 22.1567 121.335 25.4602 121.262C26.1506 121.247 26.7468 121.234 27.1983 121.234H76.6936H126.189C126.688 121.234 127.486 121.271 128.464 121.316C132.541 121.503 139.72 121.834 141.071 120.233C143.085 117.847 142.009 113.788 139.954 113.232L139.48 113.166L139.006 113.1C137.421 113.1 133.905 113.089 129.245 113.074C109.875 113.011 70.749 112.884 68.4636 113.245Z" fill="black"/>
</svg>
