<svg width="685" height="236" viewBox="0 0 685 236" fill="none" xmlns="http://www.w3.org/2000/svg">
<path fill-rule="evenodd" clip-rule="evenodd" d="M321.3 4.33888C321.339 8.44761 323.472 9.8536 325.69 14.4888C331.119 25.1146 336.547 35.7407 341.975 46.3665C342.423 47.1273 342.07 46.3722 342.495 47.3492C343.987 50.7727 346.638 55.1731 346.737 58.5124C340.687 59.8118 343.501 58.8805 339.286 61.6475C337.587 62.7624 336.459 63.3052 335.03 65.2717C334.283 66.655 333.537 68.0387 332.791 69.422C331.569 72.8152 333.701 76.5588 335.374 78.3658C337.908 81.1015 340.419 81.1892 345.03 81.1601C403.375 81.1586 461.72 81.1574 520.065 81.1559C535.318 81.1551 530.185 84.3023 537.895 90.8084C540.437 92.9537 553.947 92.0379 558.666 92.0379C583.522 91.9275 608.377 91.8176 633.233 91.7072C636.78 91.7303 644.019 93.8298 643.904 86.3905C643.872 84.3292 642.423 81.9265 641.205 80.7091C635.387 74.8936 606.192 67.9982 597.924 65.2672C596.913 64.9334 596.438 64.8265 595.276 64.6326C592.669 64.0891 590.062 63.546 587.456 63.0025C573.222 60.1705 577.196 58.9769 568.118 54.2374C564.998 52.6088 562.111 51.8808 558.991 50.7095C557.893 50.2972 555.897 49.5375 554.316 49.1138C552.643 48.6928 550.971 48.2721 549.299 47.8511C530.054 42.9282 500.042 46.1639 480.372 47.2611C473.75 47.6304 442.255 51.8313 436.232 53.2913C424.395 56.1604 426.245 55.1856 417.595 49.7911C411.386 45.4923 405.177 41.1934 398.968 36.8946C398.837 36.7952 398.421 36.5076 398.285 36.4161C393.845 33.0735 389.406 29.7309 384.966 26.3883C384.093 25.6827 383.93 25.615 383.204 25.0847C382.636 24.6694 382.053 24.1425 381.478 23.6576C372.048 16.5275 362.618 9.39779 353.188 2.26771C349.314 0.340905 335.539 0.841314 330.228 0.830731C324.552 0.819393 324.29 1.58663 321.3 4.33888ZM403.756 133.843C401.7 134.481 400.558 135.308 399.921 137.001C399.169 138.995 399.209 141.538 400.139 143.413C402.778 148.731 416.382 147.077 424.883 147.077C430.777 147.077 440.617 148.444 442.798 143.495C443.447 142.022 443.561 138.93 442.849 137.34C441.267 133.811 437.387 133.633 432.286 133.636C427.737 133.639 406.178 133.091 403.756 133.843ZM36.8196 164.656C36.8196 166.561 37.1228 167.911 38.0865 169.132C41.2572 173.148 48.5313 171.715 54.2017 171.715C59.894 171.715 73.9803 172.373 78.526 171.43C82.0251 170.699 81.9971 168.226 83.7292 167.297C84.0422 162.754 84.3139 162.841 82.4794 160.719C78.5558 156.183 70.5024 157.957 61.6046 157.957C53.0773 157.957 36.8196 155.207 36.8196 164.656ZM209.3 96.9819C209.3 93.4859 206.835 90.6516 203.442 90.0669C203.273 90.0378 203.126 90.0348 202.967 90.0094C200.47 89.616 160.538 90.686 156.314 90.0907C155.651 89.9974 153.234 89.4569 150.931 90.6368C146.606 92.8531 146.268 98.8414 150.419 101.961C154.228 104.823 165.312 103.556 171.064 103.556C175.037 103.556 201.736 103.97 204.338 103.231C206.458 102.628 209.3 100.017 209.3 96.9819ZM408.342 160.955C408.342 158.744 407.021 157.356 405.687 156.44C398.897 151.771 395.529 160.898 394.103 165.112C391.615 172.35 389.127 179.588 386.639 186.826C385.269 190.62 383.906 194.389 382.746 197.576C381.916 199.857 381.711 201.213 381.034 203.213C380.113 205.889 379.192 208.565 378.27 211.24C377.755 212.729 377.757 212.18 377.282 213.742C374.086 224.251 369.72 229.976 375.255 233.978C378.439 236.279 383.388 234.328 385.116 231.169C390.942 214.278 396.769 197.387 402.596 180.497C404.274 175.526 408.342 165.08 408.342 160.955ZM432.019 164.128C433.385 159.157 430.11 156.244 425.925 156.243C419.13 156.242 418.283 164.296 416.69 168.668C416.283 169.785 416.08 170.286 415.752 171.451C414.175 175.674 412.598 179.897 411.021 184.12C409.65 187.868 408.772 191.277 407.412 194.835C403.84 205.503 400.267 216.172 396.695 226.84C395.19 231.835 398.957 235.293 402.722 235.048C408.145 234.697 408.402 232.084 409.877 227.913C412.995 219.07 416.113 210.228 419.231 201.385C420 199.408 420.196 198.453 421.037 196.217C421.785 194.227 422.191 192.636 422.868 190.69C425.355 183.636 427.843 176.583 430.33 169.53C430.991 167.386 431.466 166.141 432.019 164.128ZM245.623 80.8354C260.918 80.8354 302.048 80.1547 313.849 81.1442C314.519 81.2005 315.814 81.2035 316.5 81.1854C318.377 81.1351 319.008 80.9019 321.237 80.4869C321.602 79.6993 327.519 75.3328 323.222 69.8922C320.409 66.3296 313.786 67.3973 308.02 67.3973C296.563 67.3973 285.106 67.3973 273.649 67.3973C262.54 67.3973 250.207 66.8859 239.253 67.3893C234.976 67.5859 230.989 71.6236 232.91 77.091C233.226 77.9898 233.883 78.9131 234.619 79.5005C238.006 82.2055 243.38 80.8354 245.623 80.8354ZM4.69365 137.424C3.011 138.184 4.50202 136.414 2.62851 138.415C0.827943 140.337 -0.316123 143.409 1.09478 146.064C3.25402 150.127 6.97762 149.965 11.3691 149.956C24.9376 149.928 91.5355 150.722 95.3966 149.238C100.578 147.247 101.189 139.826 95.5924 137.126C92.514 135.641 24.1095 136.535 11.3698 136.517C10.18 136.515 8.82279 136.453 7.65718 136.496C7.08836 136.517 6.72742 136.476 6.17069 136.612C3.04351 137.375 6.51576 136.601 4.69365 137.424ZM166.144 111.559C164.056 111.809 161.023 111.113 159.125 111.788C157.851 112.241 155.87 114.641 155.262 115.64C152.54 120.117 156.822 124.257 160.117 124.932C162.959 125.515 244.609 124.975 251.969 124.998C266.288 125.042 263.842 113.031 256.377 111.596C250.319 110.432 192.998 111.437 180.595 111.571C175.888 111.622 170.581 111.028 166.144 111.559ZM213.364 80.6713C213.44 80.5576 216.902 76.9432 216.978 76.8884C217.782 72.1523 215.445 68.0243 211.248 67.4801C181.461 67.4525 151.674 67.4249 121.887 67.3973C117.334 67.3973 111.526 66.291 108.502 69.326C105.326 72.5132 105.824 77.5313 109.153 79.5761C112.387 81.563 118.352 80.8354 122.944 80.8354C137.927 80.8354 204.164 81.4666 213.364 80.6713ZM207.739 207.482C208.377 211.623 211.618 213.335 215.043 213.594C216.401 213.696 217.817 213.641 219.183 213.639C254.086 213.64 288.989 213.641 323.892 213.642C329.863 213.666 333.802 212.401 333.808 206.408C333.813 200.443 327.24 199.692 322.394 200.106C317.118 200.557 310.293 200.197 304.847 200.197C275.763 200.09 246.678 199.982 217.594 199.874C212.248 199.854 206.819 201.512 207.739 207.482ZM368.354 112.348C363.537 115.157 363.251 120.77 367.914 123.927C370.997 126.016 380.548 124.997 385.224 124.997C419.066 124.997 452.909 124.997 486.751 124.997C489.906 124.997 493.602 125.488 495.597 124.288C496.775 123.58 498.868 121.319 499.161 118.965C500.38 109.169 485.005 111.559 478.819 111.559C442.38 111.605 405.94 111.652 369.501 111.699C368.753 111.922 368.57 112.221 368.354 112.348ZM155.886 160.955C156.357 158.121 154.209 155.256 152.249 154.416C143.293 150.576 140.54 166.133 137.715 172.161C132.911 182.409 132.394 189.656 123.831 196.588C123.644 196.74 123.457 196.891 123.27 197.042C117.437 201.303 108.057 199.557 99.1486 199.557C93.9283 199.557 83.171 200.49 79.0838 198.044C75.7835 196.069 75.4714 195.226 74.4463 192.582C74.4063 192.478 74.3458 192.347 74.3057 192.243C72.7304 188.107 74.6682 185.272 72.7501 182.337C71.7712 180.838 71.2757 180.183 69.104 179.81C63.0125 178.763 60.9754 182.044 60.3823 187.244C59.764 192.668 62.4441 199.589 65.2749 203.932C67.3658 207.141 73.0404 211.273 78.1922 212.684C84.0369 214.285 92.7309 213.316 99.6773 213.316C105.63 213.316 112.781 213.962 118.572 213.242C122.592 212.739 124.647 212.048 128.223 210.147C131.304 208.509 135.393 205.31 137.668 202.685C143.099 196.418 155.489 163.34 155.886 160.955ZM536.434 162.542C536.552 160.877 536.441 162.121 536.738 160.736C537.027 158.925 537.316 157.115 537.606 155.304C537.87 153.636 538.082 153.51 538.419 151.838C538.503 151.189 538.587 150.54 538.672 149.89C539.25 145.332 540.659 146.101 545.446 146.116C562.448 146.171 562.437 144.307 561.11 153.833C560.477 158.37 559.278 163.399 554.436 163.399C550.862 163.399 538.913 164.304 536.434 162.542ZM533.906 175.877C537.503 176.599 547.062 176.302 551.381 176.443C560.931 176.755 569.652 171.369 572.225 161.495C573.6 156.217 576.042 148.161 574.514 142.65C573.262 140.705 572.009 138.76 570.756 136.815C570.107 136.191 569.251 135.629 567.946 134.847C563.819 132.376 539.827 132.848 536.084 134.087C534.283 135.29 532.481 136.493 530.68 137.695C527.669 141.224 527.149 143.22 526.516 147.761C525.875 152.357 516.698 189.67 517.292 192.26C518.097 195.773 522.796 198.475 527.659 194.992C531.94 191.925 530.287 181.713 533.906 175.877ZM646.971 163.056C646.057 162.169 645.827 164.029 646.38 160.863C646.589 159.663 646.637 159.585 646.787 158.353C647.047 156.21 647.428 155.323 647.763 153.215C648.734 147.1 648.254 145.796 652.262 145.796C656.669 145.796 661.075 145.796 665.482 145.796C668.196 145.796 671.67 145.842 671.61 148.073C671.414 149.297 671.219 150.52 671.023 151.743C670.285 155.314 669.958 161.012 666.263 162.855C664.448 163.76 648.057 163.944 646.971 163.056ZM643.13 177.314C643.246 177.251 643.394 177.149 643.471 177.114C643.546 177.078 643.715 176.962 643.811 176.923C644.513 176.783 645.214 176.642 645.916 176.502C658.782 175.814 675.59 180.215 681.727 163.082C682.556 160.767 682.271 162.025 682.625 159.982C683.527 154.783 685.568 145.044 684.174 140.793C683.304 138.139 681.77 136.493 679.72 135.177C678.927 134.668 678.744 134.484 677.754 134.026C673.992 132.286 670.749 132.678 666.01 132.678C657.063 132.678 647.9 131.827 642.306 135.673C639.55 137.568 638.008 140.296 637.116 143.698C636.601 145.663 636.219 147.049 635.876 149.261C633.91 158.243 631.943 167.224 629.977 176.205C628.906 180.024 628.263 183.451 627.605 187.071C626.476 193.283 627.234 191.962 629.945 196.047C641.36 195.566 639.193 193.434 642.547 179.363C642.607 179.052 642.667 178.741 642.727 178.43C642.942 177.554 642.78 178.003 643.13 177.314ZM581.232 152.493C582.681 154.465 581.979 154.362 584.257 155.616C586.116 156.639 587.88 157.269 590.091 156.318C590.902 155.608 591.712 154.897 592.523 154.186C596.016 148.205 590.85 146.101 602.556 146.117C613.375 146.131 613.955 145.539 613.8 149.881C613.76 151.005 613.583 151.87 613.439 152.88C612.681 158.212 611.626 162.064 604.676 162.129C599.154 162.18 593.538 160.995 588.613 162.802C588.478 162.852 588.337 162.902 588.199 162.951C587.918 163.038 587.636 163.126 587.355 163.214C583.67 164.509 579.048 168.708 577.557 171.421C576.016 174.224 575.158 177.54 574.707 180.61C571.969 199.244 570.496 196.036 610.488 196.036C612.846 196.036 614.014 195.541 615.334 194.348C622.303 188.05 615.145 184.295 614.715 183.327C607.842 183.297 600.969 183.267 594.095 183.238C591.879 183.24 589.722 183.572 588.155 182.748C587.135 179.11 589.355 177.056 590.393 175.877C592.695 174.568 604.826 176.939 612.892 173.416C619.081 170.712 622.99 166.074 625.085 159.277C625.797 154.726 626.509 150.174 627.221 145.623C627.221 138.267 620.927 132.996 614.726 132.996C605.216 132.996 593.854 131.455 587.618 136.512C583.321 139.997 581.249 147.298 581.232 152.493ZM311.193 235.398C316.164 235.398 326.827 237.767 325.425 227.584C324.45 220.497 315.92 222.041 311.71 222.28C310.905 222.325 309.905 222.282 309.081 222.278C286.519 222.277 263.956 222.277 241.393 222.277C232.854 222.277 213.073 223.77 207.127 219.806C195.652 212.155 197.438 206.87 194.464 201.678C192.959 199.049 186.022 197.263 183.297 202.3C182.804 203.212 182.147 204.751 182.427 206.424C182.889 209.182 184.375 212.296 185.309 214.484C185.736 215.342 186.162 216.201 186.589 217.059C191.67 225.584 199.944 234.173 210.386 235.395C243.989 235.396 277.591 235.397 311.193 235.398ZM169.705 155.367C163.211 157.245 163.12 166.631 170.217 168.1C175.873 169.271 292.406 168.516 310.664 168.516C320.438 168.516 333.756 170.534 337.896 166.502C340.517 163.949 340.514 160.249 338.37 157.659C337.222 156.914 336.073 156.169 334.924 155.424C331.76 154.515 228.5 155.078 217.069 155.078C209.826 155.078 173.755 154.196 169.705 155.367ZM170.535 146.757C182.613 146.757 193.399 146.528 205.428 147.134C248.439 147.008 291.449 146.883 334.46 146.757C334.909 146.757 345.104 148.402 346.537 142.416C346.958 140.658 346.592 138.717 345.952 137.328C344.663 134.53 342.523 133.638 338.182 133.626C277.452 133.523 216.723 133.421 155.993 133.318C148.866 133.315 146.118 137.913 147.022 141.749C149.07 150.441 161.901 146.757 170.535 146.757ZM168.856 191.383C174.562 190.659 184.642 190.638 190.629 190.925C198.091 191.282 205.334 191.236 212.838 191.236C218.989 191.236 229.496 192.574 231.706 187.713C232.943 184.994 232.175 181.423 230.107 179.621C227.943 177.734 225.048 177.787 221.297 177.797C206.67 177.836 192.037 177.798 177.409 177.798C159.345 177.798 159.445 175.521 154.739 188.62C153.726 191.443 152.852 193.65 151.546 196.008C149.978 198.661 148.409 201.314 146.841 203.966C146.673 204.173 146.459 204.349 146.097 204.761C144.047 207.096 142.794 209.666 140.407 211.756C139.768 212.314 139.004 212.828 138.408 213.377C134.125 217.32 127.723 220.239 121.831 221.602C116.351 222.871 101.151 222.291 96.0055 222.297C88.2068 222.307 76.6014 222.908 70.8981 219.877C66.6004 217.593 61.9807 214.008 59.12 210.049C55.9554 205.669 57.494 208.112 54.5089 202.084C53.6654 199.732 52.8222 197.38 51.9786 195.029C50.6009 189.043 51.0896 193.062 50.9358 187.423C50.6145 175.64 37.6084 178.685 37.3624 186.298C37.1296 193.497 38.7064 199.253 40.9193 205.415C41.5637 207.209 42.5532 209.311 43.238 210.605C43.7724 211.616 44.0601 212.191 44.5616 213.023C45.07 213.792 45.5779 214.561 46.0863 215.33C47.134 216.807 47.6646 218.172 48.902 219.642C50.8247 221.61 52.7473 223.578 54.67 225.546C58.1422 227.78 61.6141 230.014 65.0863 232.248C72.351 236.257 85.1277 235.398 92.8031 235.398C103.26 235.398 120.398 236.995 129.239 233.692C133.133 231.865 140.516 229.003 143.845 226.298C146.724 223.957 153.042 218.78 155.4 215.042C157.592 211.567 158.668 210.786 161.325 206.258C164.437 200.954 167.365 193.09 168.856 191.383ZM519.536 89.7967C499.988 89.7967 357.506 89.2838 350.721 90.0423C350.236 90.0964 349.777 90.1206 349.289 90.1338C333.174 90.5692 310.083 90.1171 293.743 90.1171C274.002 90.1171 254.26 90.1171 234.519 90.1171C228.924 90.1171 225.107 89.1326 222.091 92.6014C218.935 96.2305 220.59 100.598 223.536 102.138C227.672 104.3 245.721 103.556 251.969 103.556C330.935 103.556 409.9 103.556 488.866 103.556C495.028 103.556 520.473 105.219 524.48 101.864C529.3 97.827 526.725 90.96 521.809 90.0196C521.051 89.9452 520.293 89.8711 519.536 89.7967Z" fill="#FEFEFE"/>
</svg>
