<?xml version="1.0" encoding="UTF-8"?> <svg xmlns="http://www.w3.org/2000/svg" width="120" height="46" viewBox="0 0 120 46" fill="none"> <path d="M0.990143 11.4706H5.37475L6.06706 14.2235H6.25167C7.05168 13.0612 7.99015 12.2047 9.06706 11.6541C10.1748 11.1035 11.5132 10.8282 13.0824 10.8282C15.9748 10.8282 18.144 11.7459 19.5901 13.5812C21.0363 15.3859 21.7594 18.3071 21.7594 22.3447C21.7594 24.3023 21.5286 26.0765 21.0671 27.6671C20.6055 29.2271 19.9132 30.5576 18.9901 31.6588C18.0978 32.76 16.9902 33.6013 15.6671 34.1824C14.3748 34.7635 12.8825 35.0541 11.1901 35.0541C10.2363 35.0541 9.45168 34.9777 8.83629 34.8247C8.22092 34.7024 7.60553 34.4882 6.99014 34.1824V43.5882H0.990143V11.4706ZM11.2824 15.8753C10.1132 15.8753 9.19015 16.1659 8.51321 16.7471C7.86706 17.3282 7.35937 18.2 6.99014 19.3623V28.9059C7.42091 29.2424 7.88245 29.5177 8.37475 29.7318C8.89784 29.9153 9.57475 30.0071 10.4055 30.0071C12.1286 30.0071 13.4209 29.4106 14.2824 28.2176C15.144 26.9942 15.5748 24.9905 15.5748 22.2071C15.5748 20.1882 15.2363 18.6282 14.5594 17.5271C13.8825 16.4259 12.7902 15.8753 11.2824 15.8753ZM52.1019 11.4706H56.4865L57.1788 14.2235H57.3635C58.1635 13.0612 59.1018 12.2047 60.1788 11.6541C61.2865 11.1035 62.625 10.8282 64.1942 10.8282C67.0865 10.8282 69.2557 11.7459 70.7019 13.5812C72.1482 15.3859 72.8711 18.3071 72.8711 22.3447C72.8711 24.3023 72.6404 26.0765 72.1788 27.6671C71.7173 29.2271 71.025 30.5576 70.1019 31.6588C69.2095 32.76 68.1018 33.6013 66.7788 34.1824C65.4865 34.7635 63.9941 35.0541 62.3019 35.0541C61.3481 35.0541 60.5635 34.9777 59.9481 34.8247C59.3326 34.7024 58.7174 34.4882 58.1019 34.1824V43.5882H52.1019V11.4706ZM62.3942 15.8753C61.2249 15.8753 60.3018 16.1659 59.625 16.7471C58.9788 17.3282 58.4711 18.2 58.1019 19.3623V28.9059C58.5328 29.2424 58.9943 29.5177 59.4865 29.7318C60.0097 29.9153 60.6865 30.0071 61.5173 30.0071C63.2405 30.0071 64.5328 29.4106 65.3942 28.2176C66.2557 26.9942 66.6865 24.9905 66.6865 22.2071C66.6865 20.1882 66.348 18.6282 65.6711 17.5271C64.9943 16.4259 63.9018 15.8753 62.3942 15.8753ZM76.8884 12.8012C78.1191 12.2506 79.5805 11.8223 81.273 11.5165C82.9652 11.18 84.7345 11.0118 86.5807 11.0118C88.1806 11.0118 89.5191 11.2106 90.5961 11.6082C91.6728 11.9753 92.5191 12.5106 93.1345 13.2141C93.7807 13.9177 94.2268 14.7588 94.473 15.7376C94.7499 16.7165 94.8884 17.8177 94.8884 19.0412C94.8884 20.3871 94.8422 21.7482 94.7499 23.1247C94.6576 24.4707 94.596 25.8012 94.5653 27.1165C94.5653 28.4317 94.6115 29.7164 94.7038 30.9706C94.7961 32.194 95.0268 33.3565 95.3961 34.4576H90.5038L89.5345 31.2918H89.3038C88.6883 32.2399 87.8268 33.0658 86.7192 33.7694C85.6422 34.4423 84.2421 34.7788 82.5192 34.7788C81.4422 34.7788 80.4729 34.6258 79.6115 34.32C78.7498 33.9834 78.0113 33.5246 77.3961 32.9435C76.7806 32.3317 76.3036 31.6283 75.9653 30.8329C75.6268 30.0071 75.4576 29.0894 75.4576 28.08C75.4576 26.673 75.7652 25.4952 76.3807 24.5471C77.0268 23.5682 77.9345 22.7882 79.1038 22.2071C80.3038 21.5953 81.7191 21.1823 83.3499 20.9682C85.0115 20.7235 86.8576 20.6471 88.8884 20.7388C89.1037 19.0259 88.9807 17.8024 88.5192 17.0682C88.0576 16.3035 87.0268 15.9212 85.4268 15.9212C84.2268 15.9212 82.9498 16.0435 81.5961 16.2882C80.2728 16.5329 79.1806 16.8541 78.3192 17.2518L76.8884 12.8012ZM84.5038 29.8694C85.7038 29.8694 86.6575 29.6095 87.3653 29.0894C88.0728 28.5388 88.596 27.9577 88.9345 27.3459V24.3635C87.9805 24.2718 87.0575 24.2564 86.1653 24.3176C85.3036 24.3789 84.5345 24.5165 83.8576 24.7306C83.1805 24.9446 82.6422 25.2507 82.2422 25.6482C81.8421 26.0458 81.6422 26.5505 81.6422 27.1624C81.6422 28.0187 81.8882 28.6918 82.3807 29.1812C82.9036 29.64 83.6114 29.8694 84.5038 29.8694ZM108.324 24.3635L109.154 27.9424H109.431L110.031 24.3176L113.539 11.4706H119.724L112.708 32.1635C112.123 33.8765 111.554 35.4365 111 36.8435C110.477 38.2813 109.893 39.5201 109.247 40.56C108.6 41.5999 107.877 42.3953 107.077 42.9459C106.308 43.527 105.385 43.8176 104.308 43.8176C102.708 43.8176 101.431 43.5577 100.477 43.0376L101.585 38.2659C102.047 38.4494 102.508 38.5412 102.97 38.5412C103.677 38.5412 104.354 38.2354 105 37.6235C105.677 37.0424 106.185 35.9718 106.524 34.4118L96.8774 11.4706H104.077L108.324 24.3635Z" fill="#FFF"></path> <path d="M45.2072 10.14C45.2072 11.7 44.9151 13.2753 44.3303 14.8659C43.7765 16.4565 43.0535 18.0165 42.1611 19.5459C41.2996 21.0753 40.3304 22.5588 39.2534 23.9965C38.2073 25.4035 37.1765 26.7035 36.1611 27.8965L33.7149 29.7777V30.0071L37.038 29.3647H45.8995V34.4118H26.4688V31.3377C27.2072 30.573 28.038 29.6859 28.9611 28.6765C29.8842 27.6366 30.8072 26.5505 31.7303 25.4188C32.6843 24.2564 33.6074 23.0635 34.4995 21.84C35.3919 20.6165 36.192 19.3929 36.8996 18.1694C37.6073 16.9153 38.1612 15.7071 38.5611 14.5447C38.9919 13.3823 39.2072 12.2812 39.2072 11.2412C39.2072 9.98705 38.838 8.96236 38.0996 8.16706C37.392 7.34118 36.2534 6.92824 34.6842 6.92824C33.6997 6.92824 32.6843 7.14235 31.638 7.57059C30.6226 7.96823 29.7612 8.48824 29.0534 9.13059L26.6534 4.90941C27.8534 3.93058 29.2073 3.15058 30.7149 2.56941C32.2535 1.95765 34.0535 1.65176 36.1149 1.65176C37.4382 1.65176 38.6534 1.83529 39.7611 2.20235C40.8688 2.56941 41.8228 3.1047 42.6226 3.80824C43.4227 4.51177 44.0534 5.39882 44.5149 6.46941C44.9765 7.50941 45.2072 8.73295 45.2072 10.14Z" fill="#449553"></path> </svg>