<svg width="18" height="17" viewBox="0 0 18 17" fill="none" xmlns="http://www.w3.org/2000/svg">
<path d="M5.91084 2.63507L0.507104 11.7024C-0.897258 14.0531 0.781871 17.0145 3.49902 17.0145H14.3676C17.0847 17.0145 18.7638 14.0531 17.3595 11.7024L11.9252 2.63507C10.5819 0.375876 7.28468 0.375876 5.91084 2.63507ZM11.2841 3.06249L16.7184 12.1298C17.4816 13.412 16.5657 15.0606 15.0697 15.0606H4.17065C2.6747 15.0606 1.75882 13.412 2.52207 12.1298L7.95634 3.06249C8.71957 1.81077 10.5208 1.81077 11.2841 3.06249Z" fill="#DCA86E"/>
<path d="M9.11589 4.95561L5.51339 10.97C4.96385 11.8859 5.6355 13.0765 6.70404 13.0765H13.9395C15.0081 13.0765 15.6797 11.8859 15.1302 10.97L11.4972 4.95561C10.9781 4.03974 9.66541 4.03974 9.11589 4.95561ZM11.4666 6.39051L13.8174 10.3288C14.0311 10.6952 13.7869 11.1531 13.3595 11.1531H8.65795C8.23052 11.1531 7.98629 10.6952 8.19999 10.3288L10.5507 6.39051C10.7644 6.02415 11.2834 6.02415 11.4666 6.39051Z" fill="#DCA86E"/>
</svg>
