<?xml version="1.0" encoding="UTF-8"?> <svg xmlns="http://www.w3.org/2000/svg" viewBox="0 0 361.98 343.33"><path d="m132.85 2.95a21.75 21.75 0 0 1 24.15 1.55c5.23 4.34 9.81 9.4 14.84 14q88.29 84.3 176.52 168.69c2.82 2.86 5.9 5.44 8.61 8.41a24.09 24.09 0 0 1 5 14.19q0 56 0 112c-.28 11.19-9.81 21.35-21.14 21.54-20 0-39.92.09-59.88 0-11.42.23-21.45-10.16-21.55-21.45 0-14 .28-27.94.17-41.91q-62.34-61.06-124.6-122.22c-.88-.68-1.64-2.27-3-1.69-25.42 23.9-51 47.63-76.41 71.5-3.66 3.73-8.21 6.82-11.19 11.07-.17 10 0 20.05 0 30.08 4.59-2.49 7.78-7.32 12-10.56 16.72-16 33.63-31.62 50.32-47.6 7.77-7.52 21.09-8 29.16-.73 32.37 31.26 64.53 62.73 96.84 94.06 4.72 4.24 7.86 10.48 7.65 16.91.51 11.29-9.05 22.11-20.44 22.51-6.33.68-12.6-2-17.06-6.42-15.7-15-31-30.4-46.71-45.31-11.65-11.15-22.87-22.82-34.83-33.61q-42.78 40.35-85.54 80.75a22.29 22.29 0 0 1 -18.85 3.8c-9.76-2.36-16.78-11.96-16.64-21.82 0-31 0-62 0-93a23.11 23.11 0 0 1 8.79-17.69q53.56-49.95 107-100c5.33-6 13.82-9.07 21.71-7.2 5.6 1.19 10.14 5 13.95 9.13q69.28 68.07 138.71 136c5.49 5.37 12.12 10.77 13.07 18.92.48 10.54 0 21.11.18 31.66h14c0-26.52.42-53-.1-79.49-13.45-12.2-26.21-25.15-39.53-37.49q-67.15-64.38-134.45-128.6-49.6 46.2-99.26 92.26c-5.36 4.7-10.16 11-17.63 12.22-5 .36-10.38.84-14.77-2-12.73-6-16-24.66-6.33-34.79 22.76-21.66 46.11-42.77 69-64.33 17.19-15.78 34.13-31.87 51.39-47.61 2.17-2.01 4.15-4.36 6.85-5.73z" fill="#019935"></path></svg> 