<svg width="37" height="37" viewBox="0 0 37 37" fill="none" xmlns="http://www.w3.org/2000/svg">
<path fill-rule="evenodd" clip-rule="evenodd" d="M36.3857 16.5217C36.1936 16.113 35.7965 15.8565 35.3481 15.8565H32.2095C31.9234 15.8565 31.6501 15.9652 31.4409 16.1609C29.5236 17.9391 27.3074 18.7565 24.7282 18.5957C20.1975 18.3 16.8156 14.8304 16.8625 10.5261C16.8967 7.30435 19.5015 4.68261 22.734 4.68261C24.0364 4.7 25.3516 5.32174 26.1715 6.3087C26.3252 6.4913 26.5387 6.79131 26.6839 7.11739C26.7565 7.36522 26.7522 7.62174 26.6711 7.85652C26.4661 8.42174 25.8427 8.75217 25.262 8.58261C25.2534 8.57826 25.2449 8.57391 25.2406 8.57391C24.8734 8.43478 24.4891 8.36522 24.1047 8.36522C22.7212 8.36522 21.4701 9.25652 20.9918 10.5783C20.5178 11.8957 20.9021 13.3696 21.9483 14.2826C21.991 14.3391 22.0423 14.387 22.1106 14.4217L22.1832 14.4696C22.1917 14.4783 22.2045 14.487 22.2173 14.4957C22.2558 14.5391 22.2985 14.5739 22.3497 14.6043C24.0193 15.5522 26.022 15.613 27.7216 14.7696C29.6901 13.7913 31.0822 11.7696 31.4494 9.36957C31.7782 7.2 31.1548 5.03478 29.6901 3.27391C27.9949 1.25652 25.42 0.0304348 22.7853 0H22.6657C16.9949 0 12.3319 4.7 12.2636 10.4696C12.2508 11.6174 12.396 12.7304 12.6692 13.7957C12.4685 13.7739 12.2721 13.7478 12.0714 13.7348C7.44256 13.4304 3.32612 15.3522 0.255876 19.2261C-0.0259552 19.5826 -0.0814674 20.0652 0.11496 20.4783C0.307118 20.8913 0.704243 21.1435 1.15261 21.1435H4.29118C4.57728 21.1435 4.85057 21.0348 5.05981 20.8391C6.97711 19.0609 9.20187 18.2304 11.7725 18.4043C16.3074 18.7 19.6894 22.1696 19.6424 26.4739C19.6083 29.6957 17.0035 32.3174 13.7709 32.3174C12.4728 32.3 11.1533 31.6783 10.3335 30.6913C10.184 30.5087 9.96623 30.2087 9.82104 29.8826C9.74845 29.6348 9.75272 29.3739 9.83812 29.1391C10.0388 28.5739 10.6751 28.2435 11.2473 28.413C11.2558 28.4174 11.2644 28.4174 11.2729 28.4217C11.6401 28.5609 12.0244 28.6261 12.413 28.6261C13.7966 28.6261 15.0477 27.7348 15.5217 26.413C15.9957 25.0957 15.6114 23.6217 14.5652 22.7087C14.5182 22.6565 14.4627 22.6087 14.4029 22.5739L14.3261 22.5261C14.3133 22.5174 14.3047 22.5087 14.2919 22.5C14.2535 22.4565 14.2108 22.4217 14.1595 22.3913C12.4814 21.4435 10.4872 21.3826 8.78766 22.2261C6.81912 23.2043 5.42704 25.2261 5.05981 27.6261C4.73101 29.7957 5.35445 31.9609 6.81912 33.7217C8.50156 35.7478 11.0807 36.9739 13.7112 37.0043H13.8307C19.4972 37.0043 24.1645 32.3043 24.2328 26.5348C24.2457 25.387 24.1005 24.2739 23.8272 23.2087C24.0279 23.2304 24.2243 23.2565 24.425 23.2696C24.7367 23.2913 25.0442 23.3 25.3559 23.3C29.6133 23.3 33.3795 21.387 36.2406 17.7739C36.5266 17.4174 36.5822 16.9348 36.3857 16.5217Z" fill="#00B3C4"/>
</svg>
