<svg width="505" height="505" viewBox="0 0 505 505" fill="none" xmlns="http://www.w3.org/2000/svg">
<path d="M215.072 502.722C191.695 499.394 152.61 486.173 130.808 474.22C65.5543 438.456 19.523 375.671 3.81608 301.001C-1.2578 276.909 -1.27483 228.306 3.78202 204.291C21.0298 122.291 75.8723 53.8021 149.92 21.7838C208.321 -3.46652 268.365 -6.78668 327.762 11.9339C371.665 25.7765 402.866 45.442 436.05 80.1846C481.392 127.663 504.412 185.689 504.412 252.569C504.412 319.449 481.392 377.458 436.05 424.954C402.934 459.62 371.656 479.353 328.017 493.119C289.972 505.114 253.543 508.213 215.072 502.722ZM309.876 489.408C377.726 473.667 439.396 424.452 471.814 360.177C475.594 352.685 482.15 336.135 486.389 323.399C493.668 301.52 494.094 297.621 494.094 252.569C494.094 207.517 493.668 203.618 486.389 181.739C463.199 112.016 417.389 60.1955 352.433 30.1863C296.501 4.34013 225.552 1.99047 166.036 24.0057C95.5805 50.0562 37.1198 114.221 15.5814 189.146C10.4394 207.015 9.4859 216.975 9.4859 252.569C9.4859 288.155 10.4394 298.115 15.5814 315.993C29.3558 363.888 61.936 413.367 98.5684 442.023C161.345 491.144 233.069 507.234 309.876 489.408ZM226.82 437.962C179.308 430.453 131.685 403.867 121.18 378.974C119.222 374.334 113.254 367.838 107.916 364.535C95.2143 356.686 87.033 343.108 87.033 329.878C87.033 321.561 85.2111 317.576 78.5283 311.268C70.6621 303.844 70.1427 302.227 71.4623 289.432C72.4413 279.931 71.6921 273.971 69.0616 270.379C59.7821 257.686 69.0701 230.699 87.5779 216.609C116.353 194.705 172.489 177.261 269.557 160.081C286.788 157.034 304.563 153.458 309.058 152.13C325.395 147.303 307.321 144.962 254.574 145.047C210.169 145.124 199.323 146 178.295 151.262C145.332 159.502 128.492 165.964 98.7302 181.807C76.5788 193.598 73.9141 194.449 75.8296 189.129C80.6225 175.873 135.09 149.278 181.675 137.453C202.43 132.175 212.263 131.409 257.298 131.622C285.766 131.749 315.06 133.154 322.399 134.729C334.87 137.411 336.173 137.155 342.481 130.847C346.193 127.144 348.16 123.117 346.849 121.908C340.549 116.093 306.096 110.347 269.225 108.968C238.492 107.81 222.93 108.542 201.144 112.186C166.538 117.975 132.102 127.757 113.952 136.951C100.731 143.651 100.416 143.676 103.438 138.024C109.976 125.824 161.967 107.393 214.791 98.5647C248.146 92.98 292.492 94.1208 323.548 101.34C334.521 103.894 344.124 105.341 344.899 104.575C347.342 102.132 333.185 94.3591 312.591 86.8504C293.794 79.9973 290.108 79.6142 245.039 79.7845C202.073 79.9377 195.143 80.6358 174.89 86.8504C162.528 90.6388 152.415 93.3375 152.415 92.8438C152.415 90.5793 174.711 80.9508 191.95 75.7662C259.613 55.4025 341.834 70.5391 366.914 107.963C370.345 113.088 377.122 119.643 381.966 122.538C397.392 131.732 408.34 144.076 410.17 154.318C411.124 159.664 415.423 167.539 419.713 171.83C429.776 181.875 434.824 197.778 430.508 205.84C427.92 210.667 428.414 213.076 433.335 219.734C444.019 234.189 439.192 252.356 420.25 268.983C406.586 280.986 371.597 297.102 343.937 304.142C325.106 308.927 233.137 325.936 224.607 326.2C223.109 326.251 223.968 327.503 226.522 328.993C229.076 330.482 244.085 333.147 259.869 334.909C307.968 340.281 363.637 331.274 414.622 309.855C424.736 305.607 433.011 303.146 433.011 304.398C433.011 312.383 391.96 329.912 349.922 339.864C299.2 351.868 255.178 351.859 206.389 339.813C190.409 335.871 183.147 335.267 175.826 337.293C161.311 341.294 161.788 344.231 177.946 350.276C241.472 374.045 314.745 374.743 392.199 352.302C417.772 344.895 420.241 348.769 396.115 358.44C326.86 386.193 237.155 388.015 170.633 363.003C148.26 354.592 145.17 354.03 141.518 357.725C137.883 361.411 138.01 362.305 142.727 365.795C150.031 371.21 187.506 385.427 212.263 392.178C228.83 396.69 241.165 397.797 276.367 397.89C318.661 398.009 332.087 396.273 378.526 384.635C385.15 382.975 385.192 383.043 379.94 387.291C373.384 392.595 339.808 403.441 315.75 408.038C291.547 412.661 242.144 412.686 219.159 408.098C200.702 404.411 176.294 396.775 153.777 387.623L142.88 383.196L152.415 391.624C167.798 405.212 204.116 421.412 229.332 425.933C254.165 430.394 290.798 429.083 317.938 422.783C326.51 420.782 333.891 419.514 334.334 419.957C335.517 421.148 308.02 431.679 295.429 434.855C279.509 438.89 243.098 440.533 226.82 437.962ZM122.448 345.125C122.448 341.95 111.577 336.084 109.508 338.144C107.243 340.417 117.281 350.786 120.081 349.05C121.384 348.249 122.448 346.479 122.448 345.125ZM146.966 327.571L153.777 323.765L140.862 318.019C130.561 313.43 126.807 312.894 122.244 315.329C115.961 318.692 116.25 319.339 127.19 326.353C136.401 332.262 138.359 332.381 146.966 327.571ZM188.979 312.588C192.81 311.123 225.067 304.432 260.661 297.706C355.787 279.743 396.753 266.241 410.936 248.21C416.385 241.281 418.3 233.321 415.252 230.273C414.478 229.498 403.138 234.172 390.053 240.659C361.679 254.732 321.828 265.22 247.414 278.203C191.789 287.908 149.682 297.97 149.682 301.563C149.682 303.751 173.23 314.622 178.797 315.005C180.568 315.124 185.157 314.043 188.979 312.588ZM103.378 301.537C103.378 298.362 92.507 292.496 90.4383 294.556C88.1738 296.83 98.2109 307.199 101.012 305.462C102.314 304.662 103.378 302.9 103.378 301.546V301.537ZM133.49 282.459C149.665 274.201 188.766 264.564 243.677 255.276C270.646 250.722 308.037 243.256 326.766 238.693C362.479 229.984 398.601 215.537 395.834 211.05C394.931 209.603 390.155 206.734 385.201 204.665C376.9 201.192 374.031 201.6 348.083 210.046C332.606 215.068 308.309 221.266 294.075 223.811C228.864 235.449 181.87 245.231 160.587 251.599C137.04 258.639 106.103 273.273 106.103 277.377C106.103 279.165 118.472 287.405 121.869 287.874C122.303 287.933 127.531 285.49 133.49 282.459ZM119.341 242.507C142.258 232.333 175.647 223.514 230.856 213.042C303.942 199.174 335.986 192.321 338.48 190.014C341.4 187.315 312.889 181.739 296.161 181.739C273.464 181.739 223.807 189.988 180.44 200.953C117.247 216.941 84.3088 234.598 84.3088 252.484C84.3088 263.338 86.8372 264.113 96.2614 256.145C100.927 252.212 111.313 246.065 119.341 242.507ZM410.127 188.677C408.195 180.99 402.721 179.653 397.741 185.638C395.119 188.805 395.953 190.303 402.176 193.572C411.37 198.399 412.409 197.752 410.127 188.677ZM375.189 174.775C378.526 172.443 381.251 169.488 381.251 168.212C381.251 166.935 373.878 163.402 364.88 160.362L348.509 154.829L337.373 161.163L326.238 167.488L343.528 172.962C365.237 179.841 367.749 179.985 375.189 174.775ZM386.699 149.559C386.699 148.342 383.064 143.855 378.62 139.599C371.784 133.052 369.894 132.413 366.276 135.418C360.3 140.373 362.326 144.025 373.24 147.967C384.784 152.139 386.699 152.368 386.699 149.559Z" fill="#ffff"/>
</svg>
