<svg width="44" height="44" viewBox="0 0 44 44" fill="none" xmlns="http://www.w3.org/2000/svg">
<path d="M22.13 41.61C21.37 41.61 20.6 41.32 20.02 40.74L15.97 36.69H10.24C8.59 36.69 7.26 35.35 7.26 33.71V27.98L3.2 23.92C2.04 22.76 2.04 20.86 3.2 19.7L7.25 15.65V9.92C7.25 8.27 8.59 6.94 10.23 6.94H15.96L20.01 2.89C21.17 1.73 23.07 1.73 24.23 2.89L28.28 6.94H34.01C35.66 6.94 36.99 8.28 36.99 9.92V15.65L41.04 19.7C42.2 20.86 42.2 22.76 41.04 23.92L36.99 27.97V33.7C36.99 35.35 35.65 36.68 34.01 36.68H28.3L24.25 40.73C23.66 41.32 22.9 41.61 22.13 41.61Z" fill="#F8AE00"/>
<path d="M42.2 19.83L37.72 15.35V9.01C37.72 7.47 36.47 6.22 34.93 6.22H28.59L24.11 1.74C23.02 0.650001 21.25 0.650001 20.16 1.74L15.68 6.22H9.34C7.8 6.22 6.55 7.47 6.55 9.01V15.35L2.07 19.83C0.980002 20.92 0.980002 22.69 2.07 23.78L6.55 28.26V34.6C6.55 36.14 7.8 37.39 9.34 37.39H15.68L20.16 41.87C21.25 42.96 23.02 42.96 24.11 41.87L28.59 37.39H34.93C36.47 37.39 37.72 36.14 37.72 34.6V28.26L42.2 23.78C43.29 22.69 43.29 20.92 42.2 19.83ZM40.34 23.19L35.99 27.54V33.7C35.99 34.78 35.11 35.66 34.03 35.66H27.87L23.52 40.01C22.75 40.78 21.51 40.78 20.75 40.01L16.4 35.66H10.24C9.16 35.66 8.28 34.78 8.28 33.7V27.54L3.93 23.19C3.16 22.42 3.16 21.18 3.93 20.42L8.28 16.07V9.91C8.28 8.83 9.16 7.95 10.24 7.95H16.4L20.75 3.6C21.52 2.83 22.76 2.83 23.52 3.6L27.87 7.95H34.03C35.11 7.95 35.99 8.83 35.99 9.91V16.07L40.34 20.42C41.11 21.19 41.11 22.43 40.34 23.19Z" stroke="#008669" stroke-miterlimit="10"/>
<path d="M20.7 5.93L6.26 20.37C5.47 21.16 5.47 22.45 6.26 23.25L9.81 26.8C10.96 25.4 12.73 23.77 15.3 22.56C20.8 19.98 24.13 22.32 27.54 18.3C29.67 15.79 29.18 13.08 28.6 11.51C28.37 10.91 28.01 10.37 27.56 9.91L23.58 5.93C22.78 5.14 21.49 5.14 20.7 5.93Z" fill="#008669"/>
<path d="M23.57 37.68L38.01 23.24C38.8 22.45 38.8 21.16 38.01 20.36L34.46 16.81C33.31 18.21 31.54 19.84 28.97 21.05C23.47 23.63 20.14 21.29 16.73 25.31C14.6 27.82 15.09 30.53 15.67 32.1C15.9 32.7 16.26 33.24 16.71 33.7L20.69 37.68C21.49 38.47 22.78 38.47 23.57 37.68Z" fill="#008669"/>
<path d="M42.2 19.83L37.72 15.35V9.01C37.72 7.47 36.47 6.22 34.93 6.22H28.59L24.11 1.74C23.02 0.650001 21.25 0.650001 20.16 1.74L15.68 6.22H9.34C7.8 6.22 6.55 7.47 6.55 9.01V15.35L2.07 19.83C0.980002 20.92 0.980002 22.69 2.07 23.78L6.55 28.26V34.6C6.55 36.14 7.8 37.39 9.34 37.39H15.68L20.16 41.87C21.25 42.96 23.02 42.96 24.11 41.87L28.59 37.39H34.93C36.47 37.39 37.72 36.14 37.72 34.6V28.26L42.2 23.78C43.29 22.69 43.29 20.92 42.2 19.83ZM40.34 23.19L35.99 27.54V33.7C35.99 34.78 35.11 35.66 34.03 35.66H27.87L23.52 40.01C22.75 40.78 21.51 40.78 20.75 40.01L16.4 35.66H10.24C9.16 35.66 8.28 34.78 8.28 33.7V27.54L3.93 23.19C3.16 22.42 3.16 21.18 3.93 20.42L8.28 16.07V9.91C8.28 8.83 9.16 7.95 10.24 7.95H16.4L20.75 3.6C21.52 2.83 22.76 2.83 23.52 3.6L27.87 7.95H34.03C35.11 7.95 35.99 8.83 35.99 9.91V16.07L40.34 20.42C41.11 21.19 41.11 22.43 40.34 23.19Z" fill="#008669"/>
</svg>
