<svg width="44" height="43" viewBox="0 0 44 43" fill="none" xmlns="http://www.w3.org/2000/svg">
<path d="M43.1458 21.5091C43.1458 24.6608 43.1477 27.8125 43.1458 30.9633C43.142 36.8182 39.339 41.5305 33.6031 42.7522C32.8804 42.9064 32.1282 42.9854 31.3893 42.9883C24.8555 43.0064 18.3216 43.0064 11.7878 42.9959C5.99764 42.9873 1.03014 38.6911 0.174134 32.9581C0.0760597 32.303 0.012264 31.6365 0.0113118 30.9747C-0.000114257 24.6561 -0.00487513 18.3374 0.00655096 12.0188C0.0179771 6.49811 3.49532 1.88 8.75799 0.450805C9.73968 0.184205 10.7842 0.0319053 11.8002 0.0262053C18.334 -0.0109947 24.8678 -0.000495208 31.4017 0.00900479C37.1014 0.0185048 42.0584 4.25381 42.9639 9.88401C43.0734 10.5677 43.1344 11.2666 43.1382 11.9588C43.1563 15.1419 43.1458 18.326 43.1458 21.5091ZM23.3482 30.5034C23.5795 30.4053 23.7109 30.3577 23.8366 30.2958C25.3944 29.5207 26.9522 28.7457 28.5071 27.9658C29.9353 27.2488 30.6342 26.0767 30.6352 24.4913C30.639 18.8878 30.6371 13.2852 30.6352 7.68161C30.6352 7.51691 30.6218 7.35121 30.6114 7.11701C30.399 7.21031 30.2562 7.2665 30.1191 7.3351C28.5747 8.1025 27.0293 8.86811 25.4877 9.64031C24.0642 10.3534 23.3453 11.4989 23.3463 13.0995C23.351 18.7031 23.3482 24.3057 23.3482 29.9092V30.5034ZM19.7708 22.3947C19.6109 22.4613 19.4804 22.5061 19.3576 22.567C17.7846 23.3487 16.2126 24.1305 14.6415 24.916C13.2256 25.6244 12.5391 26.7975 12.5248 28.3534C12.5038 30.6805 12.5181 33.0076 12.521 35.3347C12.521 35.4966 12.5515 35.6594 12.5695 35.8289C12.6829 35.8137 12.7343 35.8194 12.7743 35.7994C14.5434 34.9167 16.3364 34.0759 18.0722 33.1314C19.17 32.5344 19.7737 31.5165 19.7937 30.2501C19.8327 27.7497 19.8223 25.2483 19.8299 22.747C19.8299 22.6422 19.7966 22.5365 19.7718 22.3937L19.7708 22.3947Z" fill="#FF6702"/>
</svg>
