<?xml version="1.0" encoding="UTF-8"?> <svg xmlns="http://www.w3.org/2000/svg" viewBox="0 0 500 500"><circle cx="250" cy="250" fill="#bf2e2e" r="250"></circle><circle cx="250" cy="250" fill="#fff" r="250"></circle><circle cx="250" cy="250" fill="#d40012" r="242"></circle><circle cx="250" cy="250" fill="#fff" r="235"></circle><circle cx="250" cy="250" fill="#d40012" r="230"></circle><g fill="#fff"><rect height="7" rx="1" width="91" x="112" y="407"></rect><rect height="16" rx="1" width="105" x="105" y="416.5"></rect><rect height="7" rx="1" width="91" x="296" y="407"></rect><rect height="16" rx="1" width="105" x="289" y="416.5"></rect><rect height="105" rx="1" width="30" x="143" y="278.5"></rect><rect height="105" rx="1" width="30" x="324" y="278.5"></rect><path d="m379 240h-258a1 1 0 0 0 -1 1v162a1 1 0 0 0 1 1h77a1 1 0 0 0 1-1v-105a50 50 0 0 1 50-50 50 50 0 0 1 50 50v105a1 1 0 0 0 1 1h79a1 1 0 0 0 1-1v-162a1 1 0 0 0 -1-1zm-200 150a1 1 0 0 1 -1 1h-40a1 1 0 0 1 -1-1v-118a1 1 0 0 1 1-1h40a1 1 0 0 1 1 1zm11-127a1 1 0 0 1 -1 1h-62a1 1 0 0 1 -1-1v-14a1 1 0 0 1 1-1h62a1 1 0 0 1 1 1zm170 127a1 1 0 0 1 -1 1h-40a1 1 0 0 1 -1-1v-118a1 1 0 0 1 1-1h40a1 1 0 0 1 1 1zm11-127a1 1 0 0 1 -1 1h-62a1 1 0 0 1 -1-1v-14a1 1 0 0 1 1-1h62a1 1 0 0 1 1 1z"></path><rect height="9" rx="1" width="50" x="314" y="251.5"></rect><rect height="9" rx="1" width="50" x="133" y="251.5"></rect><path d="m194.08 183h-79.58a1 1 0 0 0 -1 1v51a1 1 0 0 0 1 1h135.5a56 56 0 0 1 -55.92-53z"></path><path d="m385.5 183h-79.58a56 56 0 0 1 -55.92 53h135.5a1 1 0 0 0 1-1v-51a1 1 0 0 0 -1-1z"></path><path d="m199.4 156h-91.4a1 1 0 0 0 -1 1v20a1 1 0 0 0 1 1h86.05a55.71 55.71 0 0 1 5.35-22z"></path><path d="m390 156h-89.4a55.71 55.71 0 0 1 5.35 22h84.05a1 1 0 0 0 1-1v-20a1 1 0 0 0 -1-1z"></path><path d="m394.5 145h-100.8a56.07 56.07 0 0 1 5.36 8h95.44a1 1 0 0 0 1-1v-6a1 1 0 0 0 -1-1z"></path><path d="m206.3 145h-102.8a1 1 0 0 0 -1 1v6a1 1 0 0 0 1 1h97.44a56.07 56.07 0 0 1 5.36-8z"></path><path d="m250 128.5a51.5 51.5 0 1 0 51.5 51.5 51.5 51.5 0 0 0 -51.5-51.5zm0 99a47.5 47.5 0 1 1 47.5-47.5 47.5 47.5 0 0 1 -47.5 47.5z"></path><path d="m402.5 134h-110a60.48 60.48 0 0 0 -85.1 0h-111.9a1 1 0 0 0 -1 1v6a1 1 0 0 0 1 1h113.39a54.3 54.3 0 0 1 8.45-8 54 54 0 0 1 65.31 0 54.3 54.3 0 0 1 8.45 8h111.4a1 1 0 0 0 1-1v-6a1 1 0 0 0 -1-1z"></path><path d="m298.37 112c-7.61-10.54-26.37-18-48.37-18s-40.76 7.46-48.37 18h-23.13v19h25.5c7.48-9.94 21.32-17.16 37.74-19a74.32 74.32 0 0 1 16.55 0c16.41 1.84 30.26 9.06 37.74 19h25.47v-19z"></path><path d="m299.82 95c-6.41-9.83-26.28-17-49.82-17s-43.41 7.17-49.82 17h-27.68v14h27.9c3.62-5.79 11.1-10.71 20.93-14a96.54 96.54 0 0 1 57.35 0c9.82 3.29 17.31 8.21 20.93 14h27.9v-14z"></path><path d="m307.31 83a1 1 0 0 1 -.64-.23c-11.07-9.41-32.07-15.77-56.17-15.77s-45.1 6.36-56.18 15.77a1 1 0 0 1 -.64.23h-26.68a1 1 0 0 0 -1 1v6a1 1 0 0 0 1 1h30.65a1 1 0 0 0 .82-.44 27.07 27.07 0 0 1 8.43-7.56c9.94-6.07 25.77-10 43.6-10s33.66 3.93 43.6 10a27.07 27.07 0 0 1 8.43 7.56 1 1 0 0 0 .82.44h29.65a1 1 0 0 0 1-1v-6a1 1 0 0 0 -1-1z"></path><path d="m267.29 188.54a7.67 7.67 0 0 0 -5.7-2.54h-1.52a8.44 8.44 0 0 0 -6.59 3.17l-4.58 5.72a4.06 4.06 0 0 0 -.89 2.53v5.52a4.06 4.06 0 0 0 4.06 4.06h17a4.06 4.06 0 0 0 3.85-2.77l.87-2.6a4.06 4.06 0 0 0 .21-1.28v-2.79a4.06 4.06 0 0 0 -1-2.71z"></path><path d="m250 136.5a43.5 43.5 0 1 0 43.5 43.5 43.5 43.5 0 0 0 -43.5-43.5zm33 65.1a6.9 6.9 0 0 1 -2.69 5.47l-8.56 6.58a6.52 6.52 0 0 1 -4 1.35l-42.28.17a1.23 1.23 0 0 1 -1-.48l-.24-.31a1.46 1.46 0 0 1 -.3-.89v-62.49a1 1 0 0 1 1-1h21a1 1 0 0 1 .34.07h27.73l-.75 7.47a5.46 5.46 0 0 1 -1.91 3.7 6.21 6.21 0 0 1 -5 1.32 7 7 0 0 1 -5-3.57l-3.26-6a4 4 0 0 0 -3.39-2.09l-7.77-.24a1 1 0 0 1 .06.31v36.53l8.38-9.67a5.32 5.32 0 0 1 3.94-1.86 12.76 12.76 0 0 1 6.71 1.82l11.99 7.21a10.32 10.32 0 0 1 5 8.85v7.76z"></path></g></svg> 