<svg width="70" height="70" viewBox="0 0 70 70" fill="none" xmlns="http://www.w3.org/2000/svg">
<path d="M67.3 2.3H2.29999V67.3H67.3V2.3Z" fill="#FAEB00"/>
<path d="M2.3 2.3H67.3V67.3H2.3V2.3ZM0 69.6H69.6V0H0V69.6Z" fill="black"/>
<path d="M34.8 42.7L14.8 62.7L6.90001 54.8L26.9 34.8L22.7 30.6V22.4L19.8 19.5V26.7L17.3 29.2L7.10001 19.1L4.60001 21.6C4.60001 19.7 5.00001 14.2 9.60001 9.70001C14.6 4.90001 20 7.10001 21.9 8.90001L32.1 19L29.5 21.6L34.8 26.9L40.1 21.6L37.5 19L47.7 8.80001C49.6 7.00001 55 4.80001 60 9.60001C64.6 14.2 65 19.6 65 21.5L62.5 19L52.3 29.2L49.8 26.7V19.5L46.9 22.4V30.6L42.7 34.8L62.7 54.8L54.8 62.7L34.8 42.7Z" fill="black"/>
</svg>
