<svg width="16" height="17" viewBox="0 0 16 17" fill="none" xmlns="http://www.w3.org/2000/svg">
<path d="M14.1897 3.24538C14.5631 3.73141 14.8743 4.26447 15.1388 4.82888L7.95059 10.1751L4.93216 8.2624V5.97339L7.93503 7.87044L14.1897 3.24538Z" fill="#21A038"/>
<path d="M1.86709 8.10562C1.86709 7.99587 1.86709 7.9018 1.88265 7.79205L0.0622508 7.69798C0.0622508 7.82341 0.0466919 7.96451 0.0466919 8.08994C0.0466919 10.2849 0.93355 12.276 2.36497 13.7184L3.65636 12.4171C2.55168 11.3196 1.86709 9.79886 1.86709 8.10562Z" fill="url(#paint0_linear_1_16)"/>
<path d="M7.93505 1.99113C8.04396 1.99113 8.13732 1.99113 8.24623 2.00681L8.33958 0.172462C8.21511 0.172462 8.07508 0.156784 7.95061 0.156784C5.77236 0.156784 3.79638 1.05044 2.36496 2.49283L3.65635 3.79412C4.74547 2.68097 6.27025 1.99113 7.93505 1.99113Z" fill="url(#paint1_linear_1_16)"/>
<path d="M7.93505 14.2201C7.82614 14.2201 7.73278 14.2201 7.62387 14.2044L7.53052 16.0388C7.65499 16.0388 7.79502 16.0544 7.91949 16.0544C10.0977 16.0544 12.0737 15.1608 13.5051 13.7184L12.2137 12.4171C11.1246 13.5459 9.61541 14.2201 7.93505 14.2201Z" fill="url(#paint2_linear_1_16)"/>
<path d="M11.358 3.05726L12.8983 1.91275C11.5447 0.815274 9.81766 0.141113 7.93503 0.141113V1.97546C9.21086 1.99114 10.3934 2.38309 11.358 3.05726Z" fill="url(#paint3_linear_1_16)"/>
<path d="M15.839 8.1056C15.839 7.61958 15.7923 7.14924 15.7145 6.67889L14.0186 7.94882C14.0186 7.99586 14.0186 8.05857 14.0186 8.1056C14.0186 9.90859 13.2406 11.5235 12.0115 12.6366L13.2406 14.0006C14.8276 12.5582 15.839 10.4417 15.839 8.1056Z" fill="#21A038"/>
<path d="M7.93505 14.2201C6.14578 14.2201 4.54321 13.4362 3.43853 12.1976L2.0849 13.4362C3.53188 15.051 5.61677 16.0544 7.93505 16.0544V14.2201Z" fill="url(#paint4_linear_1_16)"/>
<path d="M3.87419 3.57463L2.64504 2.21062C1.04247 3.66869 0.0466919 5.76957 0.0466919 8.10562H1.86709C1.86709 6.3183 2.64504 4.68778 3.87419 3.57463Z" fill="url(#paint5_linear_1_16)"/>
<defs>
<linearGradient id="paint0_linear_1_16" x1="2.17072" y1="13.4952" x2="0.312004" y2="8.08129" gradientUnits="userSpaceOnUse">
<stop offset="0.1444" stop-color="#F2E913"/>
<stop offset="0.3037" stop-color="#E7E518"/>
<stop offset="0.5823" stop-color="#CADB26"/>
<stop offset="0.891" stop-color="#A3CD39"/>
</linearGradient>
<linearGradient id="paint1_linear_1_16" x1="2.88386" y1="2.28584" x2="7.60262" y2="0.473823" gradientUnits="userSpaceOnUse">
<stop offset="0.0592" stop-color="#0FA8E0"/>
<stop offset="0.5385" stop-color="#0099F9"/>
<stop offset="0.9234" stop-color="#0291EB"/>
</linearGradient>
<linearGradient id="paint2_linear_1_16" x1="7.42363" y1="14.4944" x2="13.0491" y2="13.2133" gradientUnits="userSpaceOnUse">
<stop offset="0.1226" stop-color="#A3CD39"/>
<stop offset="0.2846" stop-color="#86C339"/>
<stop offset="0.8693" stop-color="#21A038"/>
</linearGradient>
<linearGradient id="paint3_linear_1_16" x1="7.56101" y1="1.30946" x2="12.2382" y2="2.76365" gradientUnits="userSpaceOnUse">
<stop offset="0.0566" stop-color="#0291EB"/>
<stop offset="0.79" stop-color="#0C8ACB"/>
</linearGradient>
<linearGradient id="paint4_linear_1_16" x1="2.54776" y1="13.7268" x2="7.57157" y2="15.6183" gradientUnits="userSpaceOnUse">
<stop offset="0.1324" stop-color="#F2E913"/>
<stop offset="0.2977" stop-color="#EBE716"/>
<stop offset="0.5306" stop-color="#D9E01F"/>
<stop offset="0.8023" stop-color="#BBD62D"/>
<stop offset="0.9829" stop-color="#A3CD39"/>
</linearGradient>
<linearGradient id="paint5_linear_1_16" x1="1.44152" y1="8.32718" x2="3.45096" y2="3.05983" gradientUnits="userSpaceOnUse">
<stop offset="0.0698" stop-color="#A3CD39"/>
<stop offset="0.2599" stop-color="#81C55F"/>
<stop offset="0.9216" stop-color="#0FA8E0"/>
</linearGradient>
</defs>
</svg>
