<svg width="101" height="90" viewBox="0 0 101 90" fill="none" xmlns="http://www.w3.org/2000/svg">
<path d="M50.233 16.066L43.2406 13.2991C43.8347 11.8878 46.5764 10.6885 50.233 10.6857C53.8923 10.6885 56.6341 11.8878 57.2282 13.2991L50.233 16.066ZM55.4459 24.7374L50.7462 27.2198V17.1678L57.125 14.9978L55.446 24.7322L55.4459 24.7374ZM58.3578 27.4038L60.5055 28.6534H60.5362L61.0773 28.9686C59.864 29.3033 58.9352 29.9141 58.1571 30.7118L58.0734 30.7954C57.8899 30.9912 57.714 31.1941 57.5462 31.4035L57.4486 31.5318C57.2813 31.7465 57.1223 31.9669 56.9745 32.1956L56.8936 32.3099C56.7127 32.5861 56.5406 32.8679 56.3776 33.155C54.8436 35.7963 52.4031 37.375 50.2331 37.3806C48.0631 37.375 45.6199 35.7963 44.0914 33.155C43.9289 32.8734 43.7587 32.5962 43.581 32.3239L43.4806 32.1761C43.3348 31.9607 43.1841 31.7486 43.0287 31.5401C42.9897 31.4844 42.9534 31.4425 42.9144 31.3951C42.7506 31.1917 42.5804 30.9935 42.404 30.801C42.3677 30.7731 42.3426 30.7369 42.3091 30.7062C41.5122 29.8717 40.5025 29.2709 39.3889 28.9686L39.9356 28.6534H39.9579L42.1139 27.4038L44.3201 26.1347L50.2219 29.3534L50.2331 29.3422L50.2498 29.3534L56.1488 26.1347L58.3578 27.4038ZM66.8368 36.3402C66.3542 37.6121 65.9554 38.9899 65.9554 40.3593L65.961 49.2009C64.1173 48.8941 63.897 46.9027 63.8914 46.8162L63.8579 46.4118L63.4591 46.3755C62.7827 46.3159 62.1507 46.0138 61.6796 45.5248C60.7731 44.6183 60.7731 43.1512 60.7731 43.1373C60.762 43.2126 59.7801 44.5877 60.9182 46.0938C61.3979 46.7297 62.0952 47.123 62.9933 47.2764C63.2052 48.3781 64.0252 49.9372 65.961 50.1771V54.5003H60.5194C58.0092 53.103 59.0718 50.6429 59.1221 50.537L59.334 50.0684L58.8543 49.8871C56.1349 48.8774 56.8852 46.1608 56.9215 46.0437L57.0331 45.6477L56.6593 45.4748C54.4169 44.4317 54.7209 41.6258 54.7516 41.5087C54.0599 42.0693 53.8117 43.2101 54.2858 44.3341C54.0292 44.6297 53.6834 44.9839 53.3068 45.3744C52.6516 45.2313 52.0618 44.8765 51.6283 44.3649C51.1947 43.8532 50.9417 43.2131 50.9081 42.5434L50.9053 42.2142L50.5985 42.0971C49.692 41.7624 49.07 41.2548 48.7604 40.577C48.4173 39.8267 48.5373 39.043 48.6321 38.6609C49.1534 38.769 49.6841 38.825 50.2164 38.8283H50.2527C50.5232 38.8283 50.7882 38.8115 51.0504 38.7864C52.5008 38.6414 54.1185 38.0194 55.8087 36.3403L66.8368 36.3402ZM60.0368 74.8722L60.6448 71.701L60.7424 71.1153C61.1177 71.2623 61.5164 71.3407 61.9194 71.3468C62.8454 71.3468 63.3865 70.8559 63.7463 70.4403L64.2093 69.8964L63.83 69.2995C63.7965 69.241 62.9514 67.9049 62.3043 66.9901C62.1757 66.8094 62.0521 66.6252 61.9334 66.4379C61.1942 65.3334 60.2711 63.9472 58.4191 63.9472L58.2545 63.9528C57.9878 63.9671 57.7246 64.0207 57.4735 64.1118C56.91 63.8423 56.2936 63.7013 55.6689 63.699C55.0406 63.7141 54.4192 63.8348 53.8308 64.056C53.7081 64.0922 53.5965 64.1313 53.5101 64.148L50.0516 63.8078C50.007 63.7966 49.8675 63.7129 49.6946 63.5121V63.4926L50.4421 63.1941C50.2329 60.6951 47.8371 59.1582 46.5038 58.6367C46.4447 58.3695 46.309 58.1253 46.1133 57.9339L45.3714 57.2282L44.7187 58.012L44.398 58.4136L39.5505 56.4194L42.7022 60.3827L41.461 62.271C41.0035 62.7535 41.5084 63.2417 41.5084 63.2417L42.7914 64.1286L44.1246 63.6293C44.1692 63.6293 44.2082 63.6405 44.2557 63.6461C44.1915 63.8497 44.1078 64.6446 44.052 64.865L41.7398 64.4104L39.3132 65.7854C38.0608 66.7058 37.8908 68.2231 38.3565 69.2634L38.6243 69.8547L39.0064 70.6886L39.8571 70.3372C39.8711 70.3316 39.8822 70.3288 39.8906 70.3204C39.5838 71.2995 39.7093 72.2282 40.2532 72.8391L40.7692 73.4889L41.4553 74.3591L42.2083 73.5475C42.4315 73.3244 43.1511 72.5183 43.3714 71.8266L43.5332 71.2994L43.1678 70.895L43.1065 70.8197L43.5193 70.1364L46.5372 70.8504L47.2177 71.0066L47.5803 70.4069L47.7755 70.0834C47.8118 70.0137 47.8202 70.0025 47.9596 70.0025C48.0684 70.0025 48.1744 70.0137 48.2888 70.0416C49.3179 70.2447 50.3636 70.3521 51.4126 70.3623C52.3135 70.3623 52.8574 70.3288 53.4989 70.1141C53.4989 70.1141 55.1193 71.955 55.1751 72.0274L54.1821 75.0955L54.1375 75.2796C52.2604 75.433 51.3456 75.8458 50.2383 76.9531C48.6318 75.3577 47.4965 75.1876 43.1818 75.1876C38.0136 75.1876 34.5104 72.1558 34.5104 67.3055V55.4575H65.9604L65.966 67.3055C65.966 71.2354 63.6627 73.9769 60.0368 74.8722ZM40.6658 68.1727L40.8303 68.5827C40.7188 68.9397 39.4915 69.4473 39.4915 69.4473L39.2294 68.8644C39.0619 68.4649 39.0333 68.0208 39.1481 67.6031C39.2628 67.1855 39.5144 66.8184 39.8625 66.5606L41.8511 65.3473L43.9625 65.7935C43.9206 66.4657 44.3223 66.9678 44.3223 66.9678L42.1133 66.5438L40.7885 67.4586C40.5654 67.6148 40.5486 67.9049 40.6658 68.1727ZM59.7018 71.5197L59.024 75.0647C58.5889 75.126 58.1315 75.1595 57.6629 75.1763L58.3769 71.7736C58.5889 70.7583 55.8779 70.4432 54.5362 68.4545C53.8808 69.1908 52.6507 69.4112 51.4124 69.4112C50.28 69.4112 49.1532 69.2299 48.4643 69.0932C48.2985 69.0644 48.1306 69.0485 47.9623 69.0458C47.5634 69.0458 47.2036 69.1685 46.9526 69.5897L46.7573 69.9244L43.0589 69.0514L42.1385 70.5771C42.0102 70.8253 41.9991 71.0317 42.2082 71.2632L42.4593 71.5365C42.2863 72.0748 41.5165 72.892 41.5165 72.892L40.9671 72.2031C40.532 71.7178 40.6045 70.8253 41.0563 69.9997L42.5234 67.5173L45.6556 67.9719L45.1703 66.8591C44.5148 65.3892 45.5134 63.5205 45.6194 62.4439C45.5831 62.7703 45.2847 62.8428 44.9388 62.8428C44.6208 62.8428 44.2694 62.7842 44.0351 62.7842C43.9431 62.7842 43.8622 62.7926 43.8203 62.8232L42.9724 63.3392L42.3031 62.7479C42.2222 62.6364 42.1971 62.3658 42.3923 62.165L43.9431 60.4246L42.1134 58.2825L44.6738 59.5739L45.4576 58.6228C45.6723 58.8348 45.5775 59.3842 45.5775 59.3842C46.378 59.4065 48.6233 60.6477 48.7404 63.5484C48.7488 63.6377 48.7488 63.7353 48.7488 63.8329L48.8074 63.9277C48.9663 64.1481 49.4042 64.7087 49.9593 64.7589L53.5015 65.1104H53.5154C53.9059 65.1104 54.6785 64.6529 55.6686 64.6529C56.2125 64.6529 56.8121 64.7924 57.4537 65.1968C57.4537 65.1968 57.7772 64.9402 58.2988 64.9123C58.3379 64.9067 58.3825 64.9067 58.4187 64.9067C60.0085 64.9067 60.6695 66.3459 61.523 67.5424C62.1645 68.4517 63.0208 69.8016 63.0208 69.8016C62.7057 70.1782 62.41 70.3873 61.9163 70.3873C61.7627 70.3879 61.6095 70.373 61.4589 70.3427C59.7575 70.0276 59.5093 66.5216 58.5387 66.2427C58.4878 66.2293 58.4352 66.2227 58.3825 66.2232C58.0701 66.2232 57.9335 66.5021 57.9335 66.5021C58.3797 67.6987 58.1175 68.1811 58.5973 69.1044C58.9543 69.7878 59.5875 70.3484 59.8497 70.6161C59.8497 70.6161 59.7799 71.1349 59.7019 71.5226L59.7018 71.5197ZM56.4413 75.2013C55.9671 75.2013 55.5264 75.2069 55.1304 75.2236L56.1679 71.9854C56.3296 71.5363 55.5096 70.959 55.1721 70.4514C55.6825 70.7749 57.0074 71.4833 57.6461 71.7623C57.2322 72.9043 56.8306 74.0507 56.4413 75.2013ZM41.0113 46.0213L41.1591 40.3928L42.4198 39.0568L43.2119 40.7191L41.6499 46.1217L41.0084 46.0241L41.0113 46.0213ZM41.9178 47.7673C42.1092 48.134 42.3989 48.4401 42.7545 48.6515C42.7448 49.1864 42.6935 49.7198 42.6011 50.2469C42.5732 50.3696 42.5453 50.4839 42.5091 50.5983C42.4923 50.6708 42.47 50.7294 42.4561 50.7768C42.0684 50.7768 41.3126 50.7294 40.6961 50.5035C40.0099 50.2524 38.9864 48.9918 39.2234 47.6028C39.519 47.4215 40.2052 47.0338 40.8494 47.0338C41.343 47.0338 41.6807 47.268 41.9178 47.7673ZM56.5218 49.279C55.5539 49.9958 53.0549 51.8227 52.1484 52.4586L43.424 50.8855L43.4853 50.654C43.5969 50.1994 43.7168 49.5802 43.7224 48.8522L51.0551 48.9693L51.1946 48.8299C51.3061 48.7183 53.6296 46.4675 54.8122 45.1762C55.0939 45.5304 55.4453 45.8651 55.9083 46.1608C55.7521 47.0254 55.8161 48.2471 56.5218 49.279ZM44.6598 36.341C45.7113 37.3841 46.7349 38.034 47.7112 38.391C47.5856 38.893 47.4183 39.9362 47.8869 40.9709C48.2718 41.8076 48.9691 42.4491 49.976 42.8786C50.0875 43.9105 50.7374 45.4641 52.542 46.1503C51.7499 46.948 50.98 47.7011 50.6732 48.0023L43.3545 47.8879C43.1127 47.7724 42.9122 47.5855 42.7799 47.3524C42.766 47.3162 42.7409 47.2966 42.7241 47.2576L43.9207 47.4528L43.996 47.4556C44.1086 47.4564 44.2176 47.4169 44.3036 47.3443C44.3895 47.2716 44.4466 47.1707 44.4646 47.0596C44.4848 46.9346 44.4548 46.8068 44.3811 46.7039C44.3075 46.601 44.1961 46.5313 44.0714 46.5101L42.6015 46.2758L44.2303 40.6389L42.6879 37.384L40.2139 40.0058L40.0632 45.8658L38.4009 45.6009C38.1443 45.5507 37.8989 45.7403 37.8515 45.9997C37.8329 46.1253 37.8643 46.2531 37.9388 46.3558C38.0134 46.4585 38.1252 46.5279 38.2503 46.5492L38.9476 46.6551C38.6966 46.7974 38.532 46.9117 38.5125 46.9257L38.373 47.0261L38.334 47.199C37.9296 48.8446 38.8444 50.4065 39.8318 51.1038L39.7955 51.313C39.7565 51.564 39.8123 51.8151 39.9629 52.0187C40.0486 52.1424 40.1634 52.2431 40.2971 52.3122C40.4308 52.3812 40.5794 52.4164 40.7299 52.4147C40.9413 52.413 41.1458 52.3399 41.3104 52.2072C41.4749 52.0745 41.5898 51.8901 41.6364 51.684C42.0045 51.7258 42.342 51.737 42.5708 51.737H42.7688L52.3664 53.4746L52.5309 53.3658C53.2952 52.8303 56.2125 50.7022 57.1664 49.9966C57.4314 50.2225 57.7243 50.4289 58.0785 50.599C57.7689 51.6393 57.7494 53.2375 58.971 54.5038H34.51V40.3628C34.51 38.9906 34.1112 37.6127 33.637 36.3409L44.6598 36.341ZM43.3378 15.004L49.7221 17.1712V27.2182L45.0224 24.7358L43.3378 15.0014V15.004ZM58.9118 13.7907C58.9118 11.339 54.7922 9.13279 50.246 9.13279H50.2181C45.6718 9.13279 41.5551 11.339 41.5551 13.7907L41.6443 14.3931L43.4601 24.8331L41.636 25.8929L36.9196 28.6542H36.9363C36.9363 28.6542 35.8765 29.2009 35.3827 29.5356C33.5865 30.7852 33.2043 32.6092 34.2475 33.3623C34.5041 31.8757 35.6783 30.3221 37.8734 30.3221C39.4577 30.3221 40.6625 31.1421 41.6387 32.3665C41.8898 32.6761 42.1268 33.008 42.3472 33.3623C42.6205 33.8113 42.8966 34.2074 43.1672 34.5867H31.0122C31.9047 36.3857 32.7554 38.2907 32.7554 40.3602V67.3092C32.7554 73.8302 37.7619 76.9428 43.1784 76.9428C47.3649 76.9428 47.9283 76.7531 50.2377 79.057C52.5359 76.7532 53.1021 76.9428 57.2915 76.9428C62.7108 76.9428 67.7095 73.8302 67.7095 67.3092V40.3602C67.7095 38.2906 68.5602 36.3857 69.4583 34.5867H57.2973C57.5706 34.2074 57.844 33.8113 58.1173 33.3623C58.3404 33.0081 58.5775 32.6762 58.823 32.3665C59.8048 31.1365 61.0097 30.3221 62.5939 30.3221C64.7889 30.3221 65.9603 31.8757 66.2198 33.3623C67.2629 32.6092 66.8864 30.7851 65.0763 29.5356C64.5965 29.2009 63.5311 28.6542 63.5311 28.6542H63.5506L58.823 25.8929L57.01 24.8331L58.823 14.3931L58.9118 13.7907ZM9.42676 26.5257C10.4086 25.5132 11.4433 25.2065 12.3359 25.2065C13.7081 25.2065 14.7485 25.94 14.7485 25.94C11.039 27.9203 10.2747 31.0943 8.15496 31.8112C7.80974 31.9309 7.44651 31.9903 7.08116 31.987C5.52196 31.987 4.01306 30.9773 3.49986 29.8254C3.49986 29.8254 6.35586 29.6496 9.42676 26.5257ZM7.08106 33.2587C7.59148 33.2587 8.09076 33.1806 8.56486 33.0188C9.89246 32.5781 10.7405 31.521 11.633 30.4165C12.545 29.2925 13.5714 28.0178 15.3509 27.0695L17.1806 26.0849L15.4792 24.8856C15.3397 24.7992 14.0651 23.9373 12.3359 23.9373C10.919 23.9373 9.60246 24.5146 8.51756 25.6247C5.87626 28.3274 3.50826 28.5449 3.42176 28.5477L1.58086 28.6565L2.33393 30.3495C3.09816 32.0369 5.09526 33.2587 7.08106 33.2587ZM15.4011 48.0517C15.2058 43.2515 16.433 39.3608 18.3576 36.1527C17.2866 39.4941 17.4315 43.583 21.091 47.4047C21.091 47.4047 13.8169 38.6747 23.9833 29.7327C28.0499 26.3272 32.4986 24.2242 34.7863 22.7347C26.5137 25.4402 22.4723 22.4614 22.4723 22.4614C25.1136 24.7568 28.5359 24.7206 30.6584 24.3859C30.0838 24.6676 29.4814 24.9604 28.8399 25.3091C21.8587 29.1051 15.5919 35.3561 14.5149 44.0071V43.9429C12.8945 52.4386 9.28526 54.6199 9.28526 54.6199C12.1581 53.1975 13.9655 49.4321 14.4061 48.0765C14.8858 55.5458 18.5229 60.7275 22.7735 65.7175C24.9825 68.303 25.7579 70.8161 25.7579 70.8161C25.7579 70.8161 25.3283 67.9684 23.4122 65.6506C19.4517 60.8728 15.6807 54.9266 15.4018 48.0506L15.4011 48.0517ZM47.8411 30.5437V32.2618C48.4324 31.5394 49.5704 31.6872 49.5704 31.6872V34.1612C49.5704 34.1612 49.5341 35.3773 49.1018 35.9044H51.573C51.1435 35.3773 51.1016 34.1612 51.1016 34.1612V31.6872C51.1016 31.6872 52.2451 31.5394 52.8309 32.2618V30.5437H47.8383H47.8411ZM46.7813 20.3697C47.5706 20.9972 48.0281 21.1032 48.042 21.1116L48.3488 21.2539V19.639L45.4481 18.4173C45.4481 18.4173 45.4732 19.3545 46.7813 20.3697ZM53.6816 20.3697C54.9925 19.3544 55.0204 18.4173 55.0204 18.4173L52.1169 19.639V21.2567L52.4237 21.1117C52.4376 21.1033 52.8922 20.9973 53.6816 20.3697ZM88.1366 25.2088C89.0235 25.2088 90.0611 25.5128 91.0373 26.5253C94.111 29.6491 96.9698 29.8249 96.9698 29.8249C96.451 30.9768 94.9449 31.9893 93.3857 31.9893C93.0259 31.9893 92.6605 31.9335 92.3063 31.808C90.1893 31.094 89.4335 27.9171 85.7212 25.9396C85.7212 25.9396 86.7531 25.2088 88.1366 25.2088ZM85.1159 27.0664C86.8926 28.0147 87.9301 29.2893 88.8394 30.4162C89.7319 31.5179 90.577 32.5778 91.9075 33.0185C92.376 33.1803 92.8753 33.2584 93.3857 33.2584C95.3743 33.2584 97.3741 32.0367 98.1328 30.3465L98.8942 28.6563L97.0506 28.5447C96.9641 28.5447 94.5905 28.3244 91.952 25.6245C90.8643 24.5144 89.5505 23.9343 88.1364 23.9343C86.4071 23.9343 85.1241 24.7989 84.9847 24.8882L83.2889 26.0848L85.1159 27.0664ZM85.9498 43.9434V44.0075C84.8788 35.3556 78.6088 29.1075 71.6268 25.3095C70.9853 24.9637 70.3856 24.668 69.8083 24.3891C71.9309 24.7182 75.3531 24.7573 77.9972 22.4646C77.9972 22.4646 73.953 25.4406 65.6782 22.7352C67.9653 24.2246 72.4196 26.3276 76.4862 29.7304C86.6472 38.6779 79.3785 47.4024 79.3785 47.4024C83.0322 43.5841 83.1829 39.4952 82.1063 36.1544C84.0308 39.3619 85.258 43.2528 85.0684 48.0534C84.7895 54.9286 81.0158 60.8744 77.0468 65.6534C75.1391 67.9684 74.7151 70.8189 74.7151 70.8189C74.7151 70.8189 75.4849 68.3059 77.6911 65.7203C81.9445 60.7277 85.5844 55.5483 86.0585 48.0793C86.4992 49.4376 88.3121 53.2029 91.1849 54.6227C91.1849 54.6227 87.5729 52.4415 85.9497 43.9457L85.9498 43.9434ZM30.6688 76.6764C20.0788 76.6764 20.3498 67.581 20.3498 67.581C20.3498 67.581 19.6079 70.2753 16.6598 70.9754C16.2997 71.066 15.9294 71.1101 15.5581 71.1065C14.6098 71.1065 13.7842 70.8834 13.7842 70.8834C13.7842 70.8834 15.3266 67.6145 13.7898 63.0431C12.5235 59.2499 12.73 56.4357 12.73 56.4357C12.73 56.4357 11.3048 58.5973 7.76532 58.6196H7.72906C4.78646 58.6196 3.50066 56.38 3.50066 56.38C10.5572 53.443 9.86546 43.968 9.86546 43.968C9.86546 43.968 8.94503 44.6541 7.15996 44.721H6.97308C3.07938 44.721 1.76018 40.5484 1.76018 40.5484H1.84106C2.56066 40.5484 8.33696 40.3811 12.4231 35.1737C15.1146 31.7515 17.3236 28.7419 21.6715 27.5593L22.1094 27.4812L22.2014 27.0433C22.3241 26.3795 21.8667 25.7519 20.8348 25.0798C14.8242 21.136 18.9048 16.1072 18.9048 16.1072C18.9048 16.1072 20.6117 20.1263 24.4636 20.1263L24.7425 20.1235C25.1776 20.1012 25.6044 20.0817 26.0255 19.9924L26.734 19.8558C26.734 19.8558 25.6351 16.8714 28.2848 14.1325C30.2762 12.0629 32.6944 11.7115 34.0918 11.7115C34.803 11.7115 35.2409 11.8035 35.2409 11.8035C33.9189 13.5411 32.9594 16.4279 34.4878 18.2074C35.8154 19.7387 39.048 19.8112 39.048 22.0899C39.048 23.0578 38.1471 24.1846 36.5322 25.197C31.6652 28.2651 26.8374 32.3372 24.8282 37.795C22.3236 44.6005 25.1517 49.119 29.1876 51.713C29.1876 51.713 27.9185 52.8789 26.0833 53.0266C25.7236 53.0613 25.3624 53.079 25.0011 53.0796C21.1297 53.0796 19.1272 51.2611 19.1272 51.2611C19.1272 51.2611 19.4619 53.7741 21.4645 56.1114C23.3333 58.2646 25.7737 59.5336 29.4973 59.5867C29.4973 59.5867 29.6172 61.316 27.9688 62.8165C26.9118 63.7648 24.4768 64.0716 24.4768 64.0716C24.4768 64.0716 29.0426 64.9976 29.5447 71.7473C29.818 75.4066 30.744 76.6757 30.744 76.6757L30.6688 76.6764ZM31.7928 75.9512C31.79 75.9373 31.0509 74.7798 30.8138 71.656C30.5349 67.913 29.1236 65.7263 27.7263 64.4712C28.1307 64.2815 28.5073 64.0445 28.8196 63.76C30.8696 61.9136 30.7831 59.7437 30.7692 59.5038L30.6911 58.3324L29.5169 58.3157C26.3875 58.2655 24.2036 57.3283 22.4325 55.2699C22.0507 54.8242 21.7108 54.3443 21.4172 53.8363C22.3934 54.1347 23.5872 54.355 25.0013 54.355C25.3778 54.355 25.7739 54.3327 26.1895 54.3048C27.6131 54.1627 28.9591 53.5884 30.0469 52.6592L31.2658 51.5352L29.8768 50.6427C26.7642 48.6485 23.5818 44.8692 26.0278 38.2397C27.6093 33.9305 31.2658 30.0285 37.2118 26.2847C39.22 25.0156 40.3189 23.5178 40.3189 22.0898C40.3189 19.8836 38.478 19.0134 37.1281 18.3914C36.4699 18.0762 35.7838 17.7639 35.4519 17.3761C34.406 16.1628 35.2846 13.8395 36.258 12.5787L37.502 10.9471L35.4855 10.5483C35.4297 10.5399 34.8997 10.4423 34.0909 10.4423C32.5875 10.4423 29.7119 10.8077 27.3691 13.2426C25.4139 15.2675 25.1573 17.4236 25.2577 18.8153C25.068 18.832 24.8783 18.8404 24.6775 18.8488H24.4628C21.5175 18.8488 20.1285 15.725 20.0755 15.605L19.2471 13.6526L17.9083 15.2982C17.833 15.3986 15.8722 17.8419 16.3519 20.9072C16.667 22.9433 17.9445 24.7004 20.1368 26.1452C20.3766 26.2986 20.5412 26.4296 20.6611 26.5384C16.522 27.8855 14.2154 30.8392 11.7777 33.9436L11.4263 34.3843C7.70001 39.1342 2.42541 39.2764 1.79541 39.2764L-0.000793457 39.2206L0.545877 40.9331C0.610027 41.1395 2.19978 46.001 6.97208 46.001L7.20079 45.9926C7.70563 45.9787 8.16028 45.909 8.56189 45.8309C8.36665 48.4806 7.39049 53.3811 3.00589 55.2026L1.66709 55.7604L2.39227 57.0239C2.45921 57.1382 4.08807 59.8911 7.77537 59.8911C9.09508 59.9043 10.3984 59.598 11.5742 58.9986C11.7164 60.1979 12.0121 61.7348 12.5867 63.4557C13.9199 67.433 12.6787 70.2249 12.6313 70.3364L11.9731 71.7254L13.4597 72.1187C13.5601 72.1466 14.475 72.3753 15.5571 72.3753C17.046 72.3791 18.487 71.8487 19.6181 70.8803C20.0225 72.1271 20.717 73.5356 21.9191 74.7823C23.9663 76.8881 26.9089 77.9507 30.7523 77.9507L33.0812 77.92L31.7928 75.9512ZM44.5808 60.5972C44.5384 60.5938 44.4957 60.5989 44.4553 60.6123C44.4148 60.6257 44.3775 60.6471 44.3455 60.6752C44.3135 60.7033 44.2875 60.7375 44.269 60.7759C44.2505 60.8142 44.2399 60.8559 44.2378 60.8984C44.2343 60.941 44.2396 60.9837 44.2532 61.0242C44.2668 61.0646 44.2885 61.1019 44.3169 61.1337C44.3453 61.1655 44.3799 61.1912 44.4186 61.2093C44.4572 61.2273 44.4991 61.2373 44.5418 61.2387C44.627 61.2441 44.711 61.2159 44.7756 61.1601C44.8403 61.1043 44.8805 61.0254 44.8876 60.9403C44.8922 60.8542 44.8625 60.7697 44.805 60.7054C44.7475 60.6412 44.6669 60.6023 44.5808 60.5972ZM59.1568 85.4482L57.7204 81.4877C59.4301 80.9661 62.3671 79.8449 63.6864 79.1002L62.8078 81.9814L65.7838 82.9716C63.982 83.8753 61.8009 84.7204 59.1568 85.4456L59.1568 85.4482ZM50.2372 89.0044C46.7759 89.0044 42.8264 88.2067 41.6606 87.7911L43.4289 82.9993C44.896 83.4288 47.9473 83.8835 50.1647 83.8695H50.3042C52.5187 83.8835 55.5673 83.426 57.0428 82.9993L58.8083 87.7911C57.6424 88.2095 53.6931 89.0044 50.2372 89.0044ZM34.6852 82.9715L37.664 81.9813L36.7826 79.1001C38.0962 79.8448 41.0416 80.9689 42.7458 81.4876L41.3094 85.4481C38.6737 84.723 36.4842 83.8752 34.6852 82.9715ZM65.9182 82.0929L64.1052 81.3957L64.6073 79.5214L65.1567 77.477C65.1567 77.477 61.9492 79.223 57.4224 80.5312C56.1394 80.8993 55.1688 81.0695 55.1688 81.0695V82.4613C55.1688 82.4613 52.7478 82.8796 50.3046 82.8796H50.1652C47.7163 82.8796 45.301 82.4613 45.301 82.4613V81.0667C45.301 81.0667 44.3275 80.8993 43.0446 80.5311C38.5234 79.2202 35.3158 77.4769 35.3158 77.4769L35.8569 79.5213L36.3701 81.3956L34.5516 82.0929L32.5351 82.846C34.8445 83.9644 38.0464 85.5906 40.975 86.3938L40.2861 88.2849C40.2861 88.2849 44.0012 89.9807 50.1906 89.9974V90.0001H50.2742V89.9974C56.4717 89.9807 60.1868 88.2849 60.1868 88.2849L59.4895 86.3938C62.4209 85.5905 65.6284 83.9672 67.9266 82.846L65.9182 82.0929ZM42.6702 5.78993L43.493 5.87918L43.8472 5.12611L44.8847 2.90321L46.8092 3.90176L47.5567 4.28387L50.2287 1.62857L52.3122 3.69257L52.9091 4.28387L53.6566 3.90176L55.5699 2.90321L56.6242 5.12611L56.9728 5.87918L57.7956 5.78993L58.5822 5.69789C58.2224 6.50953 57.9574 7.28219 57.765 7.92359C55.6871 6.76049 52.9872 6.10229 50.2316 6.10229C47.487 6.10229 44.7872 6.76052 42.7009 7.92359C42.4758 7.16551 42.2038 6.42217 41.8864 5.69789L42.6674 5.78993H42.6702ZM50.2288 7.25983C53.9188 7.25983 56.8669 8.48703 58.4986 9.78953C58.4986 9.78953 58.9839 6.86933 60.6351 4.29493L57.6647 4.62963L56.1111 1.32443L53.1267 2.86683L50.2288 -0.000366211L47.342 2.86683L44.352 1.32443L42.8012 4.63243L39.8308 4.29216C41.4847 6.86936 41.9673 9.78676 41.9673 9.78676C43.6073 8.48416 46.547 7.25983 50.2288 7.25983ZM96.9698 56.3788C96.9698 56.3788 95.6868 58.6184 92.7414 58.6184H92.7051C89.1685 58.5961 87.7404 56.4345 87.7404 56.4345C87.7404 56.4345 87.9468 59.2459 86.675 63.0419C85.141 67.6161 86.6862 70.8794 86.6862 70.8794C86.6862 70.8794 85.8606 71.1054 84.9095 71.1054C84.5469 71.1054 84.1676 71.0691 83.8078 70.9743C80.8541 70.2742 80.1178 67.5799 80.1178 67.5799C80.1178 67.5799 80.3911 76.6753 69.8008 76.6753H69.7171C69.7171 76.6753 70.6515 75.4062 70.9276 71.7469C71.4297 64.9972 75.9927 64.0684 75.9927 64.0684C75.9927 64.0684 73.5577 63.7616 72.5007 62.816C70.8523 61.3182 70.9667 59.5862 70.9667 59.5862C74.693 59.5332 77.1363 58.2642 78.9967 56.1082C80.1956 54.7288 81.0044 53.0544 81.3396 51.2579C81.3396 51.2579 79.337 53.0792 75.4629 53.0792C75.1227 53.0792 74.7601 53.0624 74.3863 53.0262C72.551 52.8784 71.2848 51.7097 71.2848 51.7097C75.3179 49.1186 78.1461 44.5974 75.6386 37.7917C73.6304 32.339 68.7996 28.2643 63.9386 25.1957C62.3209 24.1832 61.4172 23.0564 61.4172 22.0886C61.4172 19.8099 64.6526 19.7374 65.9802 18.2061C67.5142 16.4266 66.552 13.5399 65.2244 11.8022C65.2244 11.8022 65.6706 11.7101 66.3763 11.7101C67.7764 11.7101 70.1974 12.0616 72.1889 14.1311C74.8302 16.8701 73.7341 19.8544 73.7341 19.8544L74.4425 19.9939C74.8665 20.0804 75.2876 20.0999 75.7255 20.1222L76.01 20.125C79.8507 20.125 81.566 16.1031 81.566 16.1031C81.566 16.1031 85.6493 21.1347 79.6387 25.0785C78.604 25.7507 78.1465 26.3783 78.2665 27.042L78.3613 27.4799L78.7881 27.5552C83.1447 28.7406 85.351 31.7529 88.0428 35.1724C92.1317 40.3797 97.9167 40.5471 98.6278 40.5471H98.7059C98.7059 40.5471 97.3867 44.7225 93.4958 44.7225C93.4316 44.7225 93.3759 44.7225 93.3117 44.7169C91.5266 44.6527 90.6062 43.9666 90.6062 43.9666C90.6062 43.9666 89.9117 53.4409 96.971 56.3786L96.9698 56.3788ZM93.4945 45.9998C98.264 45.9998 99.8593 41.1384 99.9263 40.9319L100.456 39.2166L98.6712 39.2724H98.6662C98.033 39.2724 92.7727 39.133 89.0434 34.3831L88.6891 33.9424C86.2514 30.8381 83.9392 27.8844 79.8057 26.5372C79.9709 26.3926 80.1472 26.2611 80.3329 26.144C82.5251 24.6992 83.8026 22.9449 84.1205 20.906C84.5919 17.8407 82.6367 15.3975 82.553 15.297L81.2254 13.6514L80.3942 15.6038C80.3384 15.7237 78.9438 18.8476 76.0097 18.8476H75.7922C75.5913 18.8392 75.3989 18.8308 75.2092 18.8141C75.3124 17.4195 75.0586 15.2663 73.1062 13.2414C70.7605 10.8064 67.8822 10.4411 66.376 10.4411C65.5728 10.4411 65.0372 10.5415 64.9787 10.5471L62.9733 10.9459L64.2089 12.5775C65.1796 13.8382 66.0609 16.1616 65.0178 17.3749C64.6831 17.7654 63.9969 18.075 63.3416 18.3902C61.9917 19.0122 60.1452 19.8824 60.1452 22.0886C60.1452 23.5166 61.2525 25.0144 63.2606 26.2835C69.1959 30.0237 72.8609 33.9285 74.4426 38.2385C76.8915 44.8655 73.6979 48.6475 70.5936 50.6385L69.2046 51.5338L70.4235 52.655C70.588 52.8001 72.0746 54.1137 74.2753 54.3034C74.6936 54.3313 75.0925 54.3536 75.4663 54.3536C76.8748 54.3536 78.0769 54.1305 79.0532 53.8348C78.7614 54.3441 78.4214 54.8241 78.0379 55.2684C76.2666 57.3268 74.0855 58.264 70.9477 58.3142L69.7818 58.331L69.6925 59.5024C69.6814 59.7395 69.5949 61.9122 71.6449 63.7586C71.9601 64.0431 72.3394 64.2801 72.7382 64.4698C71.3436 65.7249 69.9324 67.9116 69.659 71.6546C69.4275 74.7784 68.6828 75.9359 68.6744 75.9498L67.3858 77.9189L69.7147 77.9496C73.5609 77.9496 76.5063 76.8898 78.5451 74.7812C79.6011 73.6736 80.3893 72.3388 80.8489 70.8792C81.9815 71.8449 83.4215 72.375 84.9099 72.3742C85.9976 72.3742 86.9069 72.1427 87.0073 72.1204L88.4939 71.7243L87.8385 70.3353C87.7883 70.2238 86.5499 67.4346 87.8831 63.4545C88.4577 61.7336 88.7505 60.194 88.8928 58.9919C89.83 59.4828 91.0823 59.8845 92.7028 59.89C96.3844 59.89 98.005 57.1371 98.0775 57.0228L98.8027 55.7565L97.4584 55.2043C93.0739 53.3802 92.1032 48.4825 91.908 45.8326C92.3068 45.9079 92.7587 45.9776 93.2691 45.9916L93.4945 45.9998Z" fill="white"/>
</svg>
