<?xml version="1.0" encoding="UTF-8"?> <svg xmlns="http://www.w3.org/2000/svg" xmlns:xlink="http://www.w3.org/1999/xlink" viewBox="0 0 43 43"><linearGradient id="a" gradientTransform="matrix(0 45.39 -45.39 0 10269.99 6397.99)" gradientUnits="userSpaceOnUse" x1="-140.98" x2="-139.98" y1="225.78" y2="225.78"><stop offset="0" stop-color="#008053"></stop><stop offset=".6" stop-color="#7fc4a7"></stop><stop offset="1" stop-color="#00a06d"></stop></linearGradient><clipPath id="b"><path d="m3.79 1c-.79 0-1.36.74-1.49 1.71 0 0-1.06 5.6-1.06 17.4a156.4 156.4 0 0 0 1.06 19.43 1.45 1.45 0 0 0 1.49 1.46h36.64a1.36 1.36 0 0 0 1.49-1.46s-.41-8.85-.41-17.68.41-19.1.41-19.1a1.67 1.67 0 0 0 -1.49-1.76z"></path></clipPath><linearGradient id="c" gradientTransform="matrix(0 49.95 -49.95 0 11313.69 7054.22)" gradientUnits="userSpaceOnUse" x1="-141.44" x2="-140.44" y1="226.08" y2="226.08"><stop offset="0" stop-color="#00a06d"></stop><stop offset=".3" stop-color="#7fc4a7"></stop><stop offset=".55" stop-color="#00a06d"></stop><stop offset=".83" stop-color="#008053"></stop><stop offset=".89" stop-color="#00885c"></stop><stop offset=".97" stop-color="#009e74"></stop><stop offset="1" stop-color="#00a67d"></stop></linearGradient><clipPath id="d"><path d="m24.37 5.43c1.16.49 5.8 3 6.37 3.8a38.88 38.88 0 0 0 -9.39 2.7l-.14.29a64 64 0 0 1 9.15-1.06 29.06 29.06 0 0 1 -3.12 3.75l-.14.32c2.84-1.71 3.64-1.83 6.26-3.36 1 1.46 1.23 4.83 1.26 7.5.85-1.69 1.88-8.08 1.46-9.23 1.74-1.14 1.97-2.14 1.97-2.14a16.19 16.19 0 0 0 -3.33.43 30.44 30.44 0 0 0 -10.22-3.29z"></path></clipPath><linearGradient id="e" gradientTransform="matrix(0 -32.5 32.5 0 -7559.08 -4935.76)" gradientUnits="userSpaceOnUse" x1="-153.02" x2="-152.02" y1="233.49" y2="233.49"><stop offset="0" stop-color="#00ac80"></stop><stop offset="1" stop-color="#00a06d"></stop></linearGradient><clipPath id="f"><path d="m7 25.27a17.92 17.92 0 0 0 0 5.35 19.8 19.8 0 0 0 -2.31.57l-.13.29a29.4 29.4 0 0 0 3.25 1.79 11.14 11.14 0 0 0 2.48 3.51l.14-.3a6.35 6.35 0 0 1 -.36-2.38 15.48 15.48 0 0 0 4.16.67l.13-.29a11.17 11.17 0 0 1 -3.91-2 11.48 11.48 0 0 1 1.42-2.73l.14-.3c-1.19.18-2.28.62-3.31.82a19.69 19.69 0 0 1 -1.54-5.27z"></path></clipPath><linearGradient id="g" gradientTransform="matrix(0 -32.51 32.51 0 -7581.53 -4937.22)" x1="-153.01" x2="-152.01" xlink:href="#e" y1="233.49" y2="233.49"></linearGradient><clipPath id="h"><path d="m14.11 15.61a14.71 14.71 0 0 0 -2.37-.09 22.18 22.18 0 0 0 -4 .44l-.13.29c1.44.06 3.42.45 4.17 1.21a22.75 22.75 0 0 0 -4.36 6.3 46 46 0 0 1 5.58-4.61s.89 3 1.51 4.46l.14-.29a24.49 24.49 0 0 1 1.35-5.13 5 5 0 0 1 1.51-.27 23.22 23.22 0 0 1 6.43.44l.14-.24a15.42 15.42 0 0 0 -7.08-2.12h.11c.45-2 1-2.41 1-2.41a11.5 11.5 0 0 0 -4 2"></path></clipPath><linearGradient id="i" gradientTransform="matrix(0 -32.18 32.18 0 -7500.39 -4889.63)" x1="-153.08" x2="-152.08" xlink:href="#e" y1="233.54" y2="233.54"></linearGradient><clipPath id="j"><path d="m22.35 33.79q-.08-.86-.11-1.72-.95 1.3-2 2.51a9.34 9.34 0 0 1 -2.54.2h-.94l-.14.3a9 9 0 0 0 2.34.81 17.7 17.7 0 0 1 -2.15 1.47l-.14.29a16.77 16.77 0 0 0 4.33-1.65 7.75 7.75 0 0 0 1.77-.1l.14-.29c-.09-.3-.35-.48-.43-.9a30.92 30.92 0 0 0 3.11-2.83l.14-.3a26.61 26.61 0 0 1 -3.4 2.2"></path></clipPath><linearGradient id="k" gradientTransform="matrix(0 -32.5 32.5 0 -7567.43 -4935.7)" x1="-153.02" x2="-152.02" xlink:href="#e" y1="233.49" y2="233.49"></linearGradient><path d="m0 0h43v43h-43z" fill="url(#a)"></path><g clip-path="url(#b)"><path d="m1.25 1h40.69v40h-40.69z" fill="url(#c)"></path></g><g clip-path="url(#d)"><path d="m21.2 5.14h16.85v14.24h-16.85z" fill="url(#e)"></path></g><g clip-path="url(#f)"><path d="m4.57 25h9.8v11.8h-9.8z" fill="url(#g)"></path></g><g clip-path="url(#h)"><path d="m7.4 13.59h16.69v10.16h-16.69z" fill="url(#i)"></path></g><g clip-path="url(#j)"><path d="m16.6 31.59h9.15v6.06h-9.15z" fill="url(#k)"></path></g><path d="m33.49 11.57c-2.61 1.54-3.41 1.66-6.26 3.37a29 29 0 0 0 3.25-4.06 63 63 0 0 0 -9.14 1.06 36.43 36.43 0 0 1 9.53-3c-.57-.79-5.22-3.31-6.38-3.79a27.33 27.33 0 0 1 10.36 3 17 17 0 0 1 3.35-.42 4.41 4.41 0 0 1 -2 2.14c.43 1.16-.6 7.54-1.46 9.23 0-2.67-.26-6-1.26-7.51m-19.12 22.88a10.39 10.39 0 0 1 -3.77-2.32 11.74 11.74 0 0 1 1.41-2.74c-1.22.18-2.12.32-3.17.52a16.28 16.28 0 0 1 -1.68-5 18 18 0 0 0 0 5.35 15.85 15.85 0 0 0 -2.44.86 30.51 30.51 0 0 0 3.29 1.86 11.11 11.11 0 0 0 2.48 3.5 6.5 6.5 0 0 1 -.22-2.67 15.62 15.62 0 0 0 4.15.66m3.91-21.22a8.67 8.67 0 0 0 -1.16 2.27 19.27 19.27 0 0 1 7 2.51 22.63 22.63 0 0 0 -6.43-.41 4.94 4.94 0 0 0 -1.51.27 26.77 26.77 0 0 0 -1.46 5.43c-.61-1.49-1.51-4.46-1.51-4.46a45.62 45.62 0 0 0 -5.64 4.61 22.44 22.44 0 0 1 4.35-6.29c-.82-.8-2.79-1.2-4.24-1.2a16.27 16.27 0 0 1 4.16-.73 21.64 21.64 0 0 1 2.38 0 11.9 11.9 0 0 1 4-2m4.1 18.54a32.08 32.08 0 0 1 -2 2.5 12.47 12.47 0 0 1 -3.61.5 8.93 8.93 0 0 0 2.35.81 16.37 16.37 0 0 1 -2.29 1.76 16.74 16.74 0 0 0 4.36-1.64 8.07 8.07 0 0 0 1.77-.11 10 10 0 0 1 -.29-1.19 29.7 29.7 0 0 0 3.12-2.83 21 21 0 0 1 -3.26 1.91q-.08-.85-.11-1.71" fill="#fff"></path></svg> 