<?xml version="1.0" encoding="utf-8"?>
<!-- Generator: Adobe Illustrator 28.0.0, SVG Export Plug-In . SVG Version: 6.00 Build 0)  -->
<svg version="1.1" id="Шар_1" xmlns="http://www.w3.org/2000/svg" xmlns:xlink="http://www.w3.org/1999/xlink" x="0px" y="0px"
	 viewBox="0 0 391.6 390.8" style="enable-background:new 0 0 391.6 390.8;" xml:space="preserve">
<style type="text/css">
	.st0{fill:#FF1D25;}
	.st1{fill:#FFFFFF;}
</style>
<path class="st0" d="M196.2,0c107.5,0,195.4,87.9,195.4,195.4c0,108.3-87.9,195.4-195.4,195.4C88.3,390.8,0,303.3,0,195.4
	C0,87.9,88.3,0,196.2,0"/>
<path class="st1" d="M344.8,127h2c-0.8,5.7-3.3,9.8-6.9,12.2c-4.5,2.4-9.4,4.1-17.1,4.1h-6.9c-25.2-1.6-30.5,25.2-27.7,44.8
	c2,12.2,6.5,25.2,13.8,34.2c6.5,6.9,16.3,11.4,24.4,4.5c6.9-5.7,9-18.7,9-26.5c0-13.4-4.9-34.2-21.6-34.2c-4.9,0-9.4,2-13,6.9
	c-2.8,3.7-4.1,10.6-4.1,17.5h-3.3c-2-16.3,5.7-29.7,22.8-30.1c20.4,0,32.6,16.3,32.6,36.6s-12.6,39.5-33.4,39.5
	c-11,0-19.5-4.1-26.1-12.2c-6.5-7.7-9.4-20.4-9.4-36.6c0-20.4,3.3-32.2,9.4-41.9c6.5-9.4,15.1-13.8,27.3-13.8h10.2
	c6.5,0.8,11,0,13.4-0.4C342.4,130.3,344.4,129.1,344.8,127"/>
<path class="st1" d="M201.9,161.2l24.8,55l22.8-50.5l2-4.5h18.7v2.4h-1.6c-2.4,0-5.3,2.8-5.3,5.7v41.9V228c0,3.3,2.8,5.7,5.3,5.7
	h1.6v2h-12.6h-13.4v-2h2c2.4,0,5.3-2.4,5.3-5.7v-16.7v-37.5l-27.7,61.9h-1.6L195,172.6v55c0,3.3,2.4,5.7,4.9,5.7h2v2h-12.6h-6.5v-2
	h2c2.8,0,5.3-2.4,5.3-5.7v-58.2c0-2.8-1.6-5.7-5.7-5.7c-3.3,0-6.9,3.3-9,7.7l-26.1,57.8c-2.4,4.9-5.7,6.5-10.2,6.5h-6.1l-1.2-7.7
	c2.8,2,4.9,3.3,5.7,3.7c3.3,1.6,5.7-0.4,6.5-2.8l3.3-7.3l-23.6-48.9c-2.8-5.3-4.9-7.7-8.5-8.5v-2.4h13.4h10.2v2.4h-2
	c-2,0-2.8,2.8-1.2,5.7l17.9,38.3l16.7-37c2-3.7,0.4-6.5-2.4-6.9v-2.8H201.9z"/>
<path class="st1" d="M93.6,211.3v-41.9v-2.8H60.3v2.8v41.9V228c0,3.3,2.4,5.7,4.9,5.7h2v2H54.6H41.1v-2h2c2.8,0,5.3-2.4,5.3-5.7
	v-16.7v-41.9c0-3.3-2.4-5.7-5.3-5.7h-2v-2.4h13.4h2h11h19.5h9.8h3.7h12.6v2.4h-2c-2.8,0-5.3,2.8-5.3,5.7v41.9V228
	c0,3.3,2.4,5.7,5.3,5.7h2v2h-12.6H87.1v-2h2c2.4,0,4.9-2.4,4.9-5.7v-16.7H93.6z"/>
</svg>
